<?xml version="1.0" encoding="utf-8"?>
<!-- Generator: Adobe Illustrator 23.0.2, SVG Export Plug-In . SVG Version: 6.00 Build 0)  -->
<svg version="1.1" id="Layer_1" xmlns="http://www.w3.org/2000/svg" xmlns:xlink="http://www.w3.org/1999/xlink" x="0px" y="0px"
	 viewBox="0 0 1440 1440" style="enable-background:new 0 0 1440 1440;" xml:space="preserve">
<style type="text/css">
	.st0{fill:#F4F3F5;}
	.st1{fill:#E36270;}
	.st2{fill:#312A6A;}
	.st3{fill:#E8EBEF;}
	.st4{fill:#D1607F;}
	.st5{fill:#F7AA94;}
	.st6{fill:#417ABD;}
	.st7{fill:#4488C7;}
	.st8{fill:#469AD3;}
	.st9{fill:#362978;}
	.st10{fill:#458FCD;}
	.st11{fill:#47B5E6;}
	.st12{fill:#406EB5;}
	.st13{fill:#47A3DB;}
	.st14{fill:#806AAC;}
	.st15{fill:#385EA9;}
	.st16{fill:#433089;}
	.st17{fill:#C8DDE9;}
	.st18{fill:#8C78B4;}
	.st19{fill:#9A89BE;}
	.st20{fill:#4C398F;}
	.st21{fill:#171843;}
	.st22{fill:#BAACD4;}
	.st23{fill:#D161A3;}
	.st24{fill:#101126;}
</style>
<g>
	<g>
		<path class="st0" d="M873.9,593.8c-3.1,0.1-6.2,0.2-9.2,0.3c-9.7,1-19.4,1.9-29.1,2.9c-11.2,1.9-22.9,2.3-33.4,6.1
			c-9,3.2-16.5,10.3-24.7,15.7c-9.3,3.9-18.3,10.2-27.9,11.3c-25.7,2.9-51.8,4.7-73.9-13.7c-13-15.7-32.3-15.2-49.9-18.8
			c-8.7-1.8-17.8-2-26.6-2.9c-22.2-1-44.4-2-67-3.1c-6-26.5,2.8-50,25.4-65.7c33.9-23.5,72.8-22.6,110.2-17
			c61.1,9.1,121.7,21.9,182,35.3c21.2,4.7,41.3,15.2,61.2,24.7c9.1,4.3,15.8,12.7,12.9,24.9C906.7,593.8,890.3,593.8,873.9,593.8z"
			/>
		<path class="st1" d="M635.4,1052.9c-16.2-11-32.8-21.5-48.6-33.3c-9.2-6.8-16.9-15.6-25.3-23.4c-4.9-8.2-9.2-16.8-14.9-24.4
			c-11.4-15.3-23.9-29.7-35.2-45.1c-3.3-4.5-1.9-13.1-5.7-16.3c-13.7-11.6-12.7-28.4-17.5-43c-5.5-16.6-3.9-33.2,1.1-51.9
			c5.2,5.9,9.1,10.3,12.4,14c12.9,2.3,26.1,6.2,39.4,6.7c38.1,1.4,76.5,3.4,113.1-10.8c10.2-3.9,17.6-11.2,17.8-23.3
			c9.8-22.9,19.7-45.8,29.4-68.7c9-21.2,27.2-25.6,42.9-10.4c1.2,5.7,2.2,11.4,3.6,17c3.8,15.1,7.7,30.2,11.6,45.2
			c-1.7-4.3-3.2-8.7-5.3-12.9c-4.7-9.6-9.7-19.2-14.6-28.7c-5.2-3.3-11.2-9.9-15.4-8.9c-4.7,1-7.8,9.1-11.6,14
			c-4.8,10.5-10.7,20.6-14.3,31.5c-10.4,31.3-26.2,58.6-61.5,63.4c-30.2,4.1-61.2,3.1-91.8,3.6c-13,0.2-26-1.3-40.1-2
			c1.1,25.5,8.3,48.5,20.5,68.7c13.9,22.8,30.7,44,47.7,64.7c34.4,41.5,75,73.8,131.6,78.6c39.6,3.3,77.8-1.6,112.7-22.2
			c28.3-16.7,51.2-39.5,72.6-64.3c28.8-33.3,50.6-69.5,56.8-114c1.5-10.5-1.7-12.4-11.3-12.1c-34,1.2-68.1,2.4-102.1,1.7
			c-11.8-0.3-23.5-6.3-35.2-9.7c22.7,0,45.4,0,68.1,0c18,0,36,0.1,53.9,0c6.7-0.1,12.9,6,20.4-2.4c7.6-8.5,19.2-13.5,31.5-21.6
			c-2.5,6-4.2,10.9-6.7,15.4c-1.8,3.3-6.3,5.7-6.7,8.9c-1.8,12.2-3,24.6-3.3,36.9c-0.6,21.7-7.2,41.8-17.3,60.3
			c-5,9.2-15.8,15.2-23.3,23.2c-16.5,17.7-30.8,38.1-49.4,53c-10.8,8.7-19.2,21.8-35.1,25.4c-10,2.3-17.9,12.7-27.9,16.2
			c-19.3,6.6-39.1,12.2-59.2,15.4c-15.3,2.4-31.4,0.5-49.8,0.5c4.1-2.2,5.4-2.9,5.3-2.8c-11.1-2.1-23-4.4-35-6.6
			C654.4,1056.6,644.9,1054.7,635.4,1052.9z"/>
		<path class="st0" d="M790.4,1184.4c37.1-20.4,69.7-46.1,94.9-80.6c16.8-23.1,28.1-48.7,35.8-79.6c10.6,10.9,19.9,20.5,29.2,30
			c-1.6,8.1-3.2,16.3-4.8,24.4c-3.8,8-8,15.8-11.3,24c-16.4,41.4-36.7,80.1-74.6,106.3c-5.5,3.8-11.9,6.2-17.9,9.2
			C824.7,1206.8,807.5,1195.6,790.4,1184.4z"/>
		<path class="st0" d="M502.6,1057.5c8.9-10.1,17.7-20.3,28-32.1c5.3,14.7,8.7,26.9,13.9,38.1c21.6,46.4,56.4,80.9,98.9,108.2
			c7.2,4.6,14.3,9.2,21.5,13.8c-11.8,8.6-23.1,18-35.7,25.4c-6.8,4.1-15.6,4.8-23.6,7c-9.2-8.1-18.4-16.2-27.7-24.2
			c-29.7-25.8-45.4-60.3-60-95.6c-4.3-10.3-9.9-20.1-14.9-30.1C502.9,1064.5,502.7,1061,502.6,1057.5z"/>
		<path class="st2" d="M1186.9,1191.2c-17.6,23.2-42.4,32-70.2,33.7c-17.5,1-35.6,2.8-52.5-0.6c-18.3-3.7-36.5-11.2-53.1-20
			c-37.6-20-37-20.8-28.1-62.3c2.4-11.2,2.1-22.9,3.3-34.3c0.7-6.3,1.9-12.6,2.8-18.8c0.7,11.3,1.7,22.6,2.1,34
			c0.2,6.2,0.9,10,7.9,13.6c19,10,36.9,22.1,55.3,33.2c1.7,1,4,1.1,6.1,1.6c2.6-0.9,5.3-1.9,7.9-2.8c0.8-1,1.6-2,2.5-3
			c0.3-0.8,0.5-1.6,0.8-2.4c0.6,4.8,1.1,9.6,2.1,17.4c15.5,1.9,32.1,4.9,48.8,5.7c13.5,0.6,26.5-2.7,33.3-16.7
			C1166.2,1176.8,1176.5,1184,1186.9,1191.2z"/>
		<path class="st3" d="M466.5,298.8c34.5-29.5,74-50,116.6-64.7c114-39.2,225.8-33.6,334.5,19.1c33.2,16.1,62.7,38,89.2,63.8
			c-2.8,1.8-5.5,3.7-8.3,5.5c-5.1-3.5-10.2-7.1-15.3-10.6c-24.6-14.7-49.2-29.5-73.8-44.2c-30.8-10.8-61-23.9-92.5-31.8
			c-46.7-11.7-94.7-10.5-142.4-5.3c-14.7,1.6-29.1,5.8-43.6,8.7c-23.4,7.1-47.2,13.1-70.1,21.7c-16.8,6.3-32.4,16-48.5,24.1
			c-7.6,3.8-15.1,7.6-22.7,11.4C482,297.2,474.3,298,466.5,298.8z"/>
		<path class="st2" d="M467.6,1140.2c3.1,11.5,6.7,22.8,8.9,34.5c0.6,3.1-2.3,8.7-5.2,10.4c-20.2,11.7-39.7,26.7-61.6,33
			c-45.7,13.2-91.9,14.8-133-15.9c-3.5-2.6-3.9-9.1-5.8-13.8c8.8-5.9,17.6-11.9,26.3-17.8c5.8,8.4,13.7,12.8,24,13.4
			c5.1,0.3,10.2,2.6,15.1,2c17.5-2.2,34.9-5,52.2-8.3c1.5-0.3,2-5.7,2.9-8.8c-0.1-1.7-0.2-3.3-0.3-5c3.7,0.2,8,1.9,10.9,0.5
			c13.8-6.9,27.8-13.8,40.6-22.4c7.4-5,12.2-5.3,17.5-1.8C462.5,1140.2,465,1140.2,467.6,1140.2z"/>
		<path class="st4" d="M759.7,785.3c-3.9-15.1-7.8-30.1-11.6-45.2c-1.4-5.6-2.4-11.3-3.6-17c6.8,16.4,14.7,32.4,20.2,49.2
			c9.4,28.5,27.4,47.4,56.5,54.9c5.5,1.4,11.6,1,17.4,1.1c24,0.2,48,0.4,72,0.3c30.7-0.2,51.7-16,64.4-42.9
			c6.7-14.3,11-29.6,16.4-44.5c1.2-3.5,2.3-7,3.4-10.5c1.1,0.2,2.2,0.3,3.3,0.5c-2.5,38.3-3.7,76.7-7.7,114.9
			c-3.6,34.4-21.3,63.2-42.6,89.9c-31.9,40-66.3,77.4-109,106.2c-30,20.2-63.2,31.1-99.9,31.8c-32.7,0.6-64.9-0.6-94.8-15.7
			c-3-1.5-5.8-3.5-8.7-5.2c9.5,1.8,18.9,3.7,28.4,5.5c11.9,2.3,23.8,4.5,35,6.6c0.1-0.1-1.2,0.6-5.3,2.8c18.4,0,34.5,1.9,49.8-0.5
			c20.1-3.2,39.9-8.8,59.2-15.4c10-3.4,17.9-13.9,27.9-16.2c16-3.6,24.3-16.7,35.1-25.4c18.6-15,32.9-35.3,49.4-53
			c7.5-8.1,18.3-14,23.3-23.2c10.1-18.5,16.7-38.6,17.3-60.3c0.3-12.3,1.5-24.7,3.3-36.9c0.5-3.2,5-5.7,6.7-8.9
			c2.5-4.5,4.1-9.4,6.7-15.4c-12.3,8.2-23.8,13.1-31.5,21.6c-7.5,8.3-13.7,2.3-20.4,2.4c-18,0.2-36,0-53.9,0c-22.7,0-45.4,0-68.1,0
			c-13.1-5.8-23.4-14.4-28.2-28.5c-2.6-5.9-5.3-11.7-7.9-17.6l0-0.1C761.4,788.8,760.6,787.1,759.7,785.3L759.7,785.3z M985.6,781.9
			c-1-0.1-2.1-0.1-3.1-0.2c-8.4,43.4-16.7,86.8-25.1,130.2c2.6-3.4,2.9-9.5,5.4-10.6c10-4.6,7.6-13,8.2-20.8c0.2-3.3,1-6.8,2.3-9.9
			c3.9-9,11-17.7,11.8-26.9C986.8,823.3,985.6,802.6,985.6,781.9z"/>
		<path class="st5" d="M873.9,593.8c16.4,0,32.8,0,49.9,0c2.9-12.1-3.8-20.5-12.9-24.9c-19.9-9.4-40-19.9-61.2-24.7
			c-60.3-13.4-120.9-26.2-182-35.3c-37.4-5.6-76.3-6.5-110.2,17c-22.6,15.7-31.4,39.2-25.4,65.7c22.6,1,44.8,2.1,67,3.1
			c-44.1-1.7-86.2,7.4-127.2,22.8c10.1-10.7,19.3-22.4,30.5-31.8c7.3-6.2,11.5-12.3,13.7-21.7c2.8-12.1,5.4-27,13.7-34.5
			c33-29.8,74-38.6,117.6-37.1c7.1,0.2,14.2,0.3,21.4,0.5c16.8,5,33.3,12.6,50.5,14.5c41.2,4.4,82.3,8,121.1,24.1
			c3.4,1.4,7.5,1.4,11.2,2c22.5,8.5,45.1,17,67.6,25.5c0,0,0.1,0,0.1,0c5,5.5,9.5,11.7,15.2,16.2c15.3,12,31.1,23.2,46.8,34.7
			c-1,1.8-2,3.6-3,5.4c-23.9-6.2-47.6-12.9-71.7-18.3C896,594.6,884.8,594.8,873.9,593.8z"/>
		<path class="st3" d="M325.4,681.7c-2.4-41.7,44-84.2,91.8-75.7c0,8.1,0,16.5,0,24.8c-4.7,0.1-9.4,0.2-14.1,0.4
			c-19.7,0.9-37.2,7.5-44.4,26.7c-4.6,12.3-3.8,26.6-5.4,40c0.1,29.2,0.2,58.5,0.3,87.7c-0.2,12.5-0.4,25.1-0.5,37.6
			c-7,7.4-12.5,6.1-14.7-4.7c-2.9-14.5-4.8-29.4-6.1-44.1C329.7,743.5,327.7,712.6,325.4,681.7z"/>
		<path class="st4" d="M851.6,533.5c-3.8-0.6-7.8-0.6-11.2-2c-38.8-16-79.9-19.7-121.1-24.1c-17.1-1.8-33.7-9.5-50.5-14.5
			c8.7,1.5,17.4,2.9,26.1,4.4c0.3-1.2,0.5-2.4,0.8-3.6c-8.8-2.3-17.5-6.1-26.3-6.4c-13.1-0.4-25.2-0.6-30.3-15.5
			c16.8,2.6,33.6,5.3,50.4,7.7c11.6,1.7,23.3,2.6,34.9,4.5c26.2,4.4,52.4,8.6,78.3,14.1c20.8,4.4,41.1,11.5,62,15.6
			c41.6,8.3,74.9,30.6,104.7,59.3c-0.4,0.5-0.8,0.9-1.2,1.4c-6.3,1.6-11.2,1.2-14-6.4c-1.2-3.5-7.9-8.5-8-8.3
			c-9.3,8.5-18-2.2-26.8-0.7c0,0-0.1,0-0.1,0c3.4-3.1,6.8-6.1,11.1-10.1c-11-4.5-22.4-6.6-30.5-13c-11.6-9-21.2-14.6-34.7-4.1
			C862.1,534.3,856.2,533,851.6,533.5z"/>
		<path class="st6" d="M353.2,823.2c0.2-12.5,0.4-25.1,0.5-37.6c2.4,4.1,5.8,7.8,7.1,12.2c5.3,18.3,5,18.5,24.2,18.3
			c6.3-0.1,12.8-1.8,19-1.1c9.3,1.1,11.1-3.5,11.1-11.1c-0.1-33.7-0.1-67.4-0.1-101.2c0.1-6.4,0-12.8,0.3-19.2
			c0.7-14.3,1.5-28.7,2.3-43c0.3,33.4,0.7,66.8,0.8,100.2c0.1,48,0.2,95.9-0.1,143.9c-0.1,17.1-0.9,17.3-17.7,14.6
			c-25.5-4.2-26.8-5.3-46.1-40.3c-1,9.4-1.9,17.5-3,28.2c-3.8-4.5-5.8-7-7.9-9.5c1.5-1.3,4.1-2.5,4.2-3.9
			C349.8,856.9,351.5,840,353.2,823.2z"/>
		<path class="st4" d="M672.2,802.1c-0.2,12.2-7.7,19.4-17.8,23.3c-36.6,14.2-75,12.1-113.1,10.8c-13.3-0.5-26.5-4.4-39.4-6.7
			c-3.3-3.7-7.2-8.1-12.4-14c-5,18.7-6.6,35.3-1.1,51.9c4.9,14.7,3.9,31.4,17.5,43c3.8,3.2,2.4,11.8,5.7,16.3
			c11.2,15.4,23.7,29.8,35.2,45.1c5.7,7.6,10,16.2,14.9,24.4c-19.8-22.7-39.5-45.6-59.4-68.2c-36.5-41.3-41.6-92.1-43.2-143.8
			c-0.5-18.3-0.1-36.7-0.1-54.9c3.8,12,7,25,11.9,37.2c4.7,11.8,10.1,23.7,17.3,34.1c12,17.3,28.7,28.1,50.7,27.8
			c30.8-0.4,61.6-1,92.4-2.3C648.7,825.4,659.6,812,672.2,802.1z"/>
		<path class="st0" d="M1037.4,605.9c48.1-8,87.2,34.1,91.1,67.1c-0.5,47.9-0.3,95.9-11.4,143c-1.6,6.7-2.3,14.2-12.4,12.8
			c-0.3-1.6-0.5-3.1-0.8-4.7c0-2.5,0-5.1,0-7.6c0-42.9,0.4-85.7-0.1-128.6c-0.2-17.1-5.4-32.8-19-44.7c-13.8-12.1-30.5-12-47.3-11.6
			l-0.3-0.4C1037.3,622.7,1037.3,614.3,1037.4,605.9z"/>
		<path class="st7" d="M1117.2,1022.1c1.3,1,2.6,2,4.9,3.8c1.5-17.6-9.1-28.9-16.9-41.4c3.1,0.1,6.1,0.2,9.2,0.3
			c12.8,10.9,14.6,28.2,19.8,40.8c4.7-4.9,7-8.4,10.2-10.2c10.1-5.8,20.5-10.9,33.3-17.6c-7.2-1.4-11.2-2.1-15.7-3
			c1.7-3.5,3-6.1,4.3-8.6c1.6,0.2,3.2,0.4,4.8,0.6c1.9,0.5,3.8,1,5.8,1.5c3,0.3,6,0.6,9,0.8c-3.5,9-5.8,18.9-11.1,26.8
			c-3.3,5-11.1,7-17.7,10.8c-0.2-1.5-0.4-0.3,0.1,0c7.2,4.9,15.7,9.9,10.3,19.8c-1.1,2.1-11.5-0.7-17.6-1.5
			c-4.6-0.6-9.2-1.6-13.8-2.5c-3.2,2.1-6.4,4.2-9.6,6.4c-8.3,5.6-8.9,20.5-23.1,19c-21.2-12.1-43.1-23.3-63.4-36.7
			c-12.3-8.1-26.1-17.6-20.6-36.7c31.1,10.5,62.1,21,93.2,31.3C1113.7,1026.4,1115.7,1023.5,1117.2,1022.1z"/>
		<path class="st8" d="M957.1,672.9c2,2.8,4.1,5.6,6.1,8.5c-1,19.1-2,38.2-3,57.3c-1.7,2.6-3.9,5-5.1,7.9c-5.1,11.9-5,27.4-22,30.7
			c-5,1-9.9,2.7-14.9,2.8c-23.1,0.2-46.2,0-69.3,0c18.5-17.4,37.5-34.4,55.5-52.3C922.6,709.9,939.7,691.2,957.1,672.9z"/>
		<path class="st2" d="M1037.3,444.8c3.2,4.9,6.4,9.8,9.5,14.8c-0.9,1.3-1.8,2.7-2.7,4c-10.8-2.2-21.4-5.2-32.3-6.4
			c-28.6-3.1-56.5,0.7-84.5,7.4c-20.2,4.9-41.2,7.3-62,8.9c-19.1,1.5-38.4,0.3-57.6,0.3c-0.5-1.5-1.1-3-1.6-4.6
			c9.5-6.4,19.1-12.7,28.6-19c0.4,0.7,0.9,2,1.2,2c21.1-3.7,42.3-7.6,63.4-11.4c1.4-0.1,2.9-0.2,4.3-0.4c6.2-0.9,12.3-1.8,18.5-2.7
			c2.5-0.2,5.1-0.5,7.6-0.7c3.6-0.5,7.1-0.9,10.7-1.4c6.6-0.3,13.2-0.6,19.7-0.9c8.8,0.1,17.6,0.2,26.4,0.3
			c17.6,4.3,35.3,8.6,51.6,12.6C1038.4,448.6,1037.9,446.7,1037.3,444.8z"/>
		<path class="st8" d="M963.4,356.6c3.6,1.6,7.3,3.1,10.9,4.7c0,1.2,0.1,2.3,0.1,3.5c-13.8,3-27.7,6-41.5,9
			c-9.8,0-19.9-1.6-29.3,0.3c-16.6,3.5-32.8,9.3-49.2,14.1c-14.5,3.6-29.1,7.2-43.6,10.8c-9.3,1.8-18.7,3.7-28,5.5
			c-0.9,0.1-1.8,0.2-2.7,0.3c-1.2,0.2-2.4,0.3-3.6,0.5c-10.1-4.6-19.8-10.7-31-1.5c-1.6,1.3-7.5-2.6-11.4-4.1c0,0,0.3-0.3,0.3-0.3
			c11.4,1.5,14.5-5.6,15.6-14.8c4.3-3.6,8.6-7.3,12.9-10.9c0.7-0.1,1.4-0.2,2.1-0.3c0,0-0.5,0.1-0.5,0.1c17.1-3.3,34-8.6,51.2-9.5
			c45.8-2.3,91.8-2.5,137.7-3.8C956.8,360,960.1,357.8,963.4,356.6z"/>
		<path class="st3" d="M957.1,672.9c-17.5,18.3-34.6,37-52.6,54.9c-18.1,17.9-37,34.9-55.5,52.3c-9.1,0.8-18.1,1.6-27.2,2.4
			c-2.1-3.2-4.1-6.4-6.2-9.5c2.7-3.7,4.8-8,8.1-11.2c27.9-27,56.3-53.4,83.7-80.9c10-10,19.6-17.2,34.3-14.4
			C946.8,668.6,952,670.8,957.1,672.9z"/>
		<path class="st1" d="M639,471.8c5.2,15,17.2,15.1,30.3,15.5c8.8,0.3,17.5,4.1,26.3,6.4c-0.3,1.2-0.5,2.4-0.8,3.6
			c-8.7-1.5-17.4-2.9-26.1-4.4c-7.1-0.2-14.2-0.3-21.4-0.5c-43.6-1.5-84.5,7.3-117.6,37.1c-8.3,7.5-10.9,22.4-13.7,34.5
			c-2.2,9.4-6.4,15.5-13.7,21.7c-11.1,9.5-20.4,21.1-30.5,31.8c-5,1.9-10,3.7-17.1,6.4c6.7-28.9,26.3-45.9,43-64.9
			c1.6-5.1,3.3-10.3,4.9-15.4c0,0,0-0.1,0-0.1c12.6-4.5,10.4-16.2,12.7-25.7c0,0,0.2-0.1,0.2-0.1c0.8-0.8,1.6-1.7,2.4-2.5l0.1-0.1
			c0.8-0.9,1.6-1.9,2.4-2.8c0,0-0.1,0-0.1,0c7.2,1.5,10.2-0.9,7.9-8.4C559.8,474.8,598,468.2,639,471.8z"/>
		<path class="st3" d="M621,667.3c11.6,1.6,23.2,3.3,34.9,4.9c-2.3,3.8-3.9,8.2-6.9,11.3c-12.8,13.4-26,26.5-39.1,39.7
			c-20.4,18.8-40.8,37.6-61.2,56.5l-0.1,0.1c-1.8,1-3.5,1.9-5.3,2.9c-5.7,0.7-11.3,1.5-17,2.2c-6-7.5-21.6-12.6-6.2-25.3
			c6.2-4.8,12.7-9.3,18.5-14.6c25.4-22.8,50.7-45.8,76-68.7C616.9,673.3,618.9,670.3,621,667.3z"/>
		<path class="st8" d="M631,239.3c14.5-3,28.9-7.1,43.6-8.7c47.7-5.2,95.7-6.4,142.4,5.3c31.5,7.9,61.7,21,92.5,31.8
			c-4.5,2.7-9,5.4-13.5,8.1c-8.9-2.5-18-4.5-26.6-7.7c-35.8-13.4-72.9-21.1-111-23c-48-2.5-95.6,0.5-142,14.5
			c-2,0.6-4.2,0.3-6.3,0.5c-2.5-2.8-5-5.6-8.3-9.2c7.1-1.9,14.4-3.5,21.3-6C626.1,243.9,628.4,241.2,631,239.3z"/>
		<path class="st3" d="M790.4,637c45.8-2,91.5-4.9,137.3-5.7c25.7-0.5,51.2,3.3,73.9,17.2c2,1.2,4,2.6,5,6.2
			c-5.4-1.5-10.8-3.4-16.3-4.4c-22.2-4-44.4-10.6-66.6-10.9c-40.6-0.6-81.2,1.9-121.8,4.8c-13.3,0.9-26.1,7.2-39.2,10.8
			c-25.4,6.9-50.4,5.5-75.9-1.3c-21.7-5.8-43.9-11.1-66.2-12.9c-57.2-4.5-114.6-6.2-170.2,12.9c-1.8,0.6-3.9,0.4-9.6,0.8
			c19.9-14.9,39.6-19,59.8-20.9c50.9-4.9,101.8-3.6,152.6,2.2c5.5,0.6,11.1,0.2,16.7,0.3c1.4,1.4,2.6,3.6,4.4,4.2
			C713.4,654.7,752,650.3,790.4,637z"/>
		<path class="st9" d="M467.6,1140.2c-2.5,0-5.1,0-7.6,0c-5.3-3.5-10.1-3.2-17.5,1.8c-12.8,8.6-26.8,15.5-40.6,22.4
			c-2.8,1.4-7.2-0.2-10.9-0.5c-3.2-11.1-5.8-22.4-9.9-33.1c-3.2-8.4-0.3-12.5,6.7-16.1c23.5-12,46.8-24.2,70.2-36.3
			c1.2-0.1,2.3-0.2,3.5-0.3c0,0,0.4,0.4,0.4,0.4c-0.1,13.4-0.6,26.8-0.1,40.1c0.1,3.8,3.2,7.5,4.9,11.3
			C466.9,1133.4,467.2,1136.8,467.6,1140.2z"/>
		<path class="st3" d="M633.7,361.9c22.8-31.8,55.1-49,92.2-57c40.1-8.7,80.2-7.6,121.7,6.1c-7.9,2.3-14,4-20,5.8
			c-22.7,2.2-45.6,3.4-68.1,7c-17.7,2.9-34.9,8.8-52.4,13.4c-20.4,7.5-40.7,15.1-61.2,22.4C642.1,361,637.8,361.2,633.7,361.9z"/>
		<path class="st3" d="M1071.7,1163.1c-0.3,0.8-0.5,1.6-0.8,2.4c-0.8,1-1.6,2-2.5,3c-2.6,0.9-5.3,1.9-7.9,2.8
			c4.6-16.8,9.2-33.7,14.2-52.2c-26-13.1-51.2-25.8-76.5-38.5c-3.3-2.2-6.6-4.4-9.9-6.6c-2.1-4.3-4.2-8.6-6.4-12.9
			c0.7-0.9,1.4-1.8,2.2-2.7c22.5,10,45.5,19,67.4,30.1c48.5,24.6,95.4,51.9,134.9,90.1c8.9,8.6,9,9.8,0.5,12.6
			c-10.3-7.2-20.6-14.5-31-21.7c-4.6-3-9.3-5.9-14-8.9c-2.2-1.5-4.4-3-6.6-4.4c-0.3-0.7-0.9-1-1.6-0.7c-4.6-3-9.2-6.1-13.7-9.1
			c-0.5-0.8-1.2-1.2-2.2-1c-6.1-3.7-12.2-7.5-18.3-11.2c-4.2-2.5-8.4-5-13.2-8C1081,1139.5,1076.3,1151.3,1071.7,1163.1z"/>
		<path class="st9" d="M998.2,1080.6c25.3,12.7,50.5,25.4,76.5,38.5c-5,18.5-9.6,35.3-14.2,52.2c-2-0.5-4.3-0.5-6.1-1.6
			c-18.4-11.1-36.3-23.3-55.3-33.2c-6.9-3.6-7.7-7.4-7.9-13.6c-0.4-11.3-1.3-22.6-2.1-34c-0.2-1.7-0.4-3.4-0.6-5.1
			C991.8,1082.7,995,1081.7,998.2,1080.6z"/>
		<path class="st3" d="M458,1078.4c-23.4,12.1-46.7,24.3-70.2,36.3c-7.1,3.6-9.9,7.7-6.7,16.1c4.1,10.7,6.7,22,9.9,33.1
			c0.1,1.7,0.2,3.3,0.3,5c-1.8,0.2-4.9,1.1-5.1,0.5c-6.8-14.1-13.4-28.3-20.6-44c-22.5,14.8-45.5,30-68.4,45.1
			c-8.8,5.9-17.6,11.9-26.3,17.8c-6,4.5-12,9.1-20.1,15.2c-5.2-1.7-2.9-5.9,2.3-10.2c27.1-22.1,53.2-45.6,81.7-65.8
			c40.8-29,86.1-49.9,135.4-65.7c-2.7,4.6-5.4,9.2-8.1,13.9C460.6,1076.6,459.3,1077.5,458,1078.4z"/>
		<path class="st10" d="M633.7,361.9c4.1-0.8,8.4-1,12.3-2.4c20.4-7.3,40.8-14.9,61.2-22.4c3.5,1.3,6.9,2.7,10.4,4
			c-2.6,2.3-5,4.9-7.9,6.7c-2.7,1.6-5.9,2.4-7.5,3c3.4,2.8,6.9,5.6,10.3,8.4c-5.8,0.3-11.5,0.6-17.6,0.9c2.9,10.8,12.5,7.4,19.7,9
			c-0.4,0.7-0.7,1.8-1.4,2.1c-27.2,13.5-54.5,27-81.7,40.5c-7.4,3.7-14.5,7.9-22.4,12.2c-0.4-4.3-0.6-7.2-0.9-10.1
			C611.9,394.2,620.4,376.9,633.7,361.9z"/>
		<path class="st11" d="M417.6,640.5c-0.8,14.3-1.6,28.7-2.3,43c-0.3,6.4-0.2,12.8-0.3,19.2c-2.6,5.4-5.2,10.7-8.5,17.4
			c-0.7-3-1.7-5-1.4-6.8c2.1-12-5.9-14.7-14.8-15.3c-12.3-0.7-24.6-0.3-36.9-0.4c1.6-13.4,0.8-27.7,5.4-40
			c7.2-19.2,24.7-25.8,44.4-26.7c4.7-0.2,9.4-0.3,14.1-0.4C417.4,634,417.5,637.3,417.6,640.5z"/>
		<path class="st3" d="M963.4,356.6c-3.3,1.2-6.6,3.4-10,3.5c-45.9,1.3-91.8,1.6-137.7,3.8c-17.2,0.8-34.1,6.2-51.2,9.5
			c15.2-9.4,29.3-21.6,45.7-27.6C862.4,326.6,914.1,327.9,963.4,356.6z"/>
		<path class="st10" d="M960.2,434.7c-6.6,0.3-13.2,0.6-19.7,0.9c-3.6,0.5-7.1,0.9-10.7,1.4c-2.5,0.2-5.1,0.5-7.6,0.7
			c-6.3,0.2-15.3-19-18.5,2.7c-1.4,0.1-2.9,0.2-4.3,0.4c-5.3-3.5-10.7-7-16-10.6c1.4-0.7,2.8-1.5,4.2-2.2c-0.4-0.5-0.8-1-1.2-1.5
			c-1,1.3-1.9,2.5-2.9,3.8c-7.7,0.8-15.5,1.7-23.2,2.5c0.2-0.9,0.4-1.7,0.6-2.6c13-7.7,25.9-15.4,38.8-23.1c1.5,0.6,3,1.7,4.4,1.6
			c33.8-2,66.9,1.4,99.3,11.4c5.3,1.6,10.9,2.2,16.3,3.3c5.9,7.1,11.8,14.2,17.7,21.3c0.5,1.9,1.1,3.8,0.8,2.8
			c-16.3-4-34-8.3-51.6-12.6C977.8,428.5,969,428.8,960.2,434.7z"/>
		<path class="st9" d="M466.5,398.8c1.9,2.4,4.9,4.4,5.5,7.1c6.5,29.1,13.4,58.1,18.5,87.4c1.2,6.8-3.3,14.9-6.2,22.1
			c-1.5,3.7-5,6.7-7.7,10c-13.7,5.3-15.9,16.4-14.6,29.2c-0.2,1.4-0.4,2.8-0.6,4.3c-9.9-10.3-11.5-22.8-9.9-36.2
			c5.4-15,9.8-30,4.8-46.1c0.9-15.1,2-30.2,2.6-45.3c0.3-6.3-0.5-12.7-0.8-19C460.9,407.7,463.7,403.2,466.5,398.8z"/>
		<path class="st12" d="M526.4,784.9c5.7-0.7,11.3-1.5,17-2.2c1.8-1,3.5-1.9,5.2-2.9c0,0,0.1-0.1,0.1-0.1
			c24.3,0.1,48.7,1.8,72.7-0.5c10.2-1,22.9-8.2,28.4-16.6c7.2-11,8.4-25.9,12.2-39.2c0.1-3.4,0.2-6.7,0.3-10.1
			c9.5-7.9,5.2-16.9,2.4-25.9c-1.1-3.8-2.1-7.7-3.2-11.5c3.3,5,8.9,9.8,9.4,15.1c2.7,28.9-1.8,57-14.7,83.1
			c-8.7,17.6-23,27.2-43.7,26.7c-24.8-0.6-49.6,0.3-74.3-0.4c-13.1-0.3-25.1-4.2-30.6-18.1C513.8,783.2,520.1,784.1,526.4,784.9z"/>
		<path class="st3" d="M523.3,368c0.4-1.4,0.8-2.8,1.2-4.1c1.4-2.5,2.8-5,4.1-7.5c18.1-34.7,48.4-53.4,85-62.1
			c26.2-6.3,53.2-9.4,79.9-13.9c0.4,1,0.7,2,1.1,3.1c-7,5.1-14.1,10.3-21.1,15.4c-3.5,1.3-7,2.8-10.5,3.9
			c-15.9,4.9-31.7,9.7-47.6,14.5c-22.7,0.9-41.6,10.6-58.5,24.8c-8.7,9.7-17.4,19.4-26.1,29.1C528.3,370.1,525.8,369,523.3,368z"/>
		<path class="st13" d="M492.2,681.8c6.1-4.8,12.2-9.7,18.3-14.5c4.9,0.7,9.7,2.1,14.6,2c18.9-0.5,37.8-1.4,56.7-2.1
			c-2.6,3.3-4.9,6.9-7.9,9.7c-22,20.7-44.2,41.1-66.4,61.7c-1.6-10.8-3.1-21.6-5-32.4c-0.6-3.5-1.9-6.9-3.3-10.2
			C497.1,691.1,494.6,686.5,492.2,681.8z"/>
		<path class="st7" d="M396.9,414.4c-5.9,15.5-14.5,30.5-17.1,46.5c-4.8,30-6.8,60.6-8.5,91c-1.1,19.5-2.7,23.2-23.6,29.9
			c-0.7-3.3-2.1-6.5-2-9.6c1.6-30.7,3.4-61.4,5.3-92.1c0.1-1.5,1.5-2.9,2.3-4.4c3.7-4.8,7.3-9.5,11-14.3c2.3,0.8,4.5,1.6,9.1,3.2
			c2-11.7,3.9-23,5.8-34.3c0,0,0.1-0.2,0.1-0.2c3.3-6.9,6.7-13.8,10-20.6c0,0,0-0.3,0-0.3C391.8,411,394.3,412.7,396.9,414.4z"/>
		<path class="st14" d="M502.6,1057.5c0.2,3.5,0.3,7,0.5,10.5c-0.5,6.2-3.4,13.5-1.2,18.5c13.5,30.6,25.9,62.1,43.2,90.6
			c13.1,21.7,33.2,39,60.5,43.5c2.1,1.3,4,3.1,6.2,3.8c4.7,1.4,9.6,2.2,14.4,3.3c-27.5,12.7-51.4,3.9-71.7-14.6
			c-40.1-36.6-57.4-83.8-58.8-137.2C495.5,1069.8,500.1,1063.6,502.6,1057.5z"/>
		<path class="st15" d="M608.1,413.9c0.3,2.9,0.5,5.8,0.9,10.1c7.9-4.3,15-8.5,22.4-12.2c27.2-13.6,54.5-27,81.7-40.5
			c0.6-0.3,0.9-1.4,1.4-2.1c8.3-3.5,16.7-7.1,25-10.6c7-3.4,13.9-6.9,20.9-10.3c5.9-2.7,11.9-5.3,17.8-8
			c-7.9,6.8-15.4,14.1-23.7,20.4C711,394,663.8,420.3,611.8,438c-2.7,0.9-5.6,1.3-10.5,2.4C603.9,430.6,606,422.3,608.1,413.9z"/>
		<path class="st11" d="M941.7,666.5c-14.7-2.9-24.3,4.3-34.3,14.4c-27.3,27.5-55.8,53.9-83.7,80.9c-3.2,3.1-5.4,7.4-8.1,11.1
			c-5.6-4.1-13.4-7.2-5.2-16.1c1-1.1-1.2-5-1.9-7.6c23.7-23.1,47.6-46.1,71.1-69.4c4.3-4.3,7.1-10.1,10.5-15.2
			C907.3,665.2,924.5,665.8,941.7,666.5z"/>
		<path class="st12" d="M821.8,782.4c9.1-0.8,18.2-1.6,27.2-2.4c23.1,0.1,46.2,0.3,69.3,0c5-0.1,9.9-1.8,14.9-2.8
			c17-3.3,17-18.8,22-30.7c1.2-2.8,3.3-5.2,5.1-7.9c0.3,1.9,0.6,3.7,0.8,5.6c-3.8,11.6-5.6,24.4-11.8,34.6
			c-8,13.2-19.8,22.6-37.7,22c-25.7-1-51.4-0.1-77.1-0.1c-12.1,0-22.3-4.1-28.8-15c3.4-1.2,6.7-2.6,10.1-3.4
			C817.7,781.9,819.8,782.4,821.8,782.4z"/>
		<path class="st9" d="M530.8,371.1c8.7-9.7,17.4-19.4,26.1-29.1c-0.1,1.9-0.2,3.9-0.3,5.8c-0.3,0.4-0.6,0.9-0.9,1.3
			c0.4-0.3,0.8-0.7,1.2-1c2.5,1.7,5,3.3,7.5,5c-1.7,4.3-3.4,8.6-5.1,12.9c0,0,0,0,0,0c-1.4,2.1-2.9,4.1-4.3,6.2
			c-9,31.1-18,62.2-27.7,95.9c-2.6-5.9-5.2-9.7-5.9-13.8c-3.5-19.8-12-39.3-5.8-60c0.3,4,0.5,7.9,0.9,13.3
			C521.5,394.4,526.1,382.8,530.8,371.1z"/>
		<path class="st7" d="M1104.7,828.7c10,1.4,10.8-6.2,12.4-12.8c11.1-47.1,11-95.1,11.4-143c1.2,21.7,3.3,43.4,3.4,65.1
			c0.2,35,0.2,70-2.2,104.9c-0.8,10.8-9.8,20.9-15.1,31.4c-1.2,1.2-2.3,2.4-3.5,3.6c0,0-0.1,0-0.1,0c-2.2,0.7-4.4,1.4-6.6,2.1
			c0,0,0.1-1.1,0.1-1.1c-0.6-6.6-1.3-13.1-1.9-19.7c-0.4-0.4-0.5-0.9-0.3-1.5c0-3.7,0-7.5,0-13.7c-3.8,5.9-6,9.4-8.2,12.8
			C1097.6,847.5,1101.1,838.1,1104.7,828.7z"/>
		<path class="st10" d="M353.2,823.2c-1.8,16.8-3.4,33.7-5.4,50.5c-0.2,1.5-2.8,2.6-4.2,3.9c0,0-0.5-0.4-0.5-0.4
			c-0.6-0.6-1.2-1.2-1.9-1.8c-0.6-0.1-0.8-0.4-0.8-1c-0.5-0.7-1.1-1.4-1.6-2.1c-11.3-14.7-17-30.9-16.5-49.8
			c1.2-44.9,1.4-89.7,2-134.6c0-2.1,0.7-4.2,1.1-6.3c2.3,30.9,4.3,61.8,6.9,92.7c1.3,14.8,3.2,29.6,6.1,44.1
			C340.7,829.3,346.2,830.6,353.2,823.2z"/>
		<path class="st8" d="M739.5,358.6c-8.3,3.5-16.7,7-25,10.6c-7.2-1.6-16.8,1.9-19.7-9c6.1-0.3,11.9-0.6,17.6-0.9
			c-3.4-2.8-6.9-5.6-10.3-8.4c1.6-0.6,4.9-1.4,7.5-3c2.9-1.8,5.3-4.4,7.9-6.7c-3.5-1.3-6.9-2.7-10.4-4c17.4-4.6,34.7-10.5,52.4-13.4
			c22.5-3.6,45.4-4.8,68.1-7c-16.5,7.8-33,15.7-49.5,23.5c-5.9,2.7-11.9,5.3-17.8,8C753.4,351.7,746.4,355.1,739.5,358.6z"/>
		<path class="st7" d="M1102,477.4c12.7,33.5,6.2,68.1,7.6,102.5c-15.6-1-23.5-7.8-24.1-19.2c-1.2-23-2.5-46-3.8-69.1
			c3-6.8,1.7-17.2,13.8-16.5C1097.7,475.9,1099.8,476.6,1102,477.4z"/>
		<path class="st7" d="M983.3,311.9c5.1,3.5,10.2,7.1,15.3,10.6c34.5,30.7,59.3,68.1,78,110c-1.8,6-3.6,12.1-5.4,18.1
			c-23-56.2-59.1-102-109.5-136.2c-0.6-0.4-0.8-1.5-1.2-2.2C968.1,312.1,975.7,312,983.3,311.9z"/>
		<path class="st16" d="M782.8,404.4c9.3-1.8,18.7-3.7,28-5.5c2.6,0.4,5.3,0.7,8.9,1.2c-2.6,1.5-4.1,2.3-8.8,5c10.4,0,16.9,0,23.8,0
			c-1.1,2.4-1.8,4-2.5,5.5c-8.4,4.3-16.5,9.5-25.3,12.8c-13.4,5.1-27.2,8.9-40.9,13.3c-7,0.7-14.3,0.3-20.9,2.2
			c-13.7,4-19.3,2.4-25.2-9.3c2.9-1.6,5.6-3.6,8.7-4.8c15.9-6.6,31.9-13.1,47.9-19.6c1.2-0.2,2.4-0.3,3.6-0.5
			C781,404.6,781.9,404.5,782.8,404.4z"/>
		<path class="st8" d="M273.7,1003.4c-1.3-4-2.5-8-3.8-12c17-9.2,35.3-9.7,53.9-7.6c7.5,0.8,15,1.6,22.5,2.3
			c-3.8,8.4-7.6,16.9-11.3,25.3c-3.6,0.4-7.2,0.8-7.4,0.8c-2.8,6.1-3.8,12-6.2,12.7c-4.8,1.3-10.5-0.2-15.8-0.6
			c-1.1-1.9-2.3-3.7-3.4-5.6c-1.9-0.2-3.7-0.4-5.6-0.7c-1.6,0.2-3.3,0.4-4.9,0.6C285.7,1013.6,279.7,1008.5,273.7,1003.4z"/>
		<path class="st8" d="M432.7,995.4c-0.7,5.4-1.3,10.9-2,16.3c-0.9,1.5-1.8,3-2.8,4.5c0,0-0.5,0.5-0.5,0.5c-0.7,0.8-1.3,1.6-2,2.4
			c0,0-0.1,0.2-0.1,0.2c-0.8,0.8-1.6,1.7-2.4,2.5c0,0-0.1,0.1-0.1,0.1c-0.8,0.8-1.7,1.6-2.5,2.5l-0.1,0.1c-0.8,0.8-1.7,1.6-2.5,2.4
			c0,0-0.2,0.1-0.2,0.1c-2.5,1.7-5,3.5-7.5,5.2c0,0-0.1,0.1-0.1,0.1c-5.1,3.3-10.3,6.7-15.4,10c0,0-0.2,0.2-0.2,0.2
			c-5.1,1.7-10.3,3.3-15.4,5c-0.8,0.1-1.6,0.2-2.4,0.2c-5.1-1.7-10.3-5.3-15.2-4.8c-13,1.4-18.9-3.7-18.9-16.4
			C372.6,1016.2,402.7,1005.8,432.7,995.4z"/>
		<path class="st5" d="M790.4,637c-38.4,13.3-77,17.6-116.1,3.2c-1.7-0.6-2.9-2.8-4.4-4.2c1.9-6.5,3.8-13.1,5.7-19.6
			c22,18.4,48.2,16.6,73.9,13.7c9.6-1.1,18.6-7.4,27.9-11.3C781.7,624.9,786,631,790.4,637z"/>
		<path class="st11" d="M804.3,669.6c19.2-0.9,38.3-1.7,57.5-2.7c6.3-0.3,12.5-1.3,18.8-1.9c-2.5,4-4.5,8.5-7.7,11.9
			c-3.9,4.3-9.1,7.3-13.3,11.4c-12.7,12.5-25.3,25.2-37.9,37.9c7.3-8.3-6.9-13.7-4.3-21.3c5.9,1.8,10.6,3.2,15.3,4.7
			c-0.5-6.8-1-13.7-1.4-20.5c-1,1.1-2,2.2-3,3.2c-5-1.8-10.1-3.3-14.9-5.5c-4.4-2-8.5-4.8-12.7-7.3c2.8-2,5.7-3.9,8.5-5.9
			C807.2,672,805.7,670.8,804.3,669.6z"/>
		<path class="st3" d="M346.3,986.2c-7.5-0.8-15-1.5-22.5-2.3c-18.6-2.1-36.9-1.6-53.9,7.6c-11-17.9-10.3-20.3,9.1-26.4
			c27.5-8.6,53.8-5.9,80.1,9.5C354.4,978.8,350.4,982.5,346.3,986.2z"/>
		<path class="st17" d="M364.3,461.5c-3.7,4.8-7.3,9.5-11,14.3c5.4-31.3,20.1-58.7,35.7-85.7c20.3-35.1,45.5-66.1,77.6-91.3
			c7.7-0.8,15.5-1.5,23.2-2.3c-2.6,2.1-5.2,4.2-7.8,6.3c-20.5,15.9-44.6,27.6-59.1,50.6c-3.8,5.1-8.1,9.9-11.3,15.4
			c-7.7,13.4-14.9,27-22.3,40.6c0,0,0,0.3,0,0.3c-3.3,6.9-6.7,13.8-10,20.6c0,0-0.1,0.2-0.1,0.2
			C374.2,440.7,369.2,451.1,364.3,461.5z"/>
		<path class="st3" d="M1171.2,986.8c-1.6-0.2-3.2-0.4-4.8-0.6c-17.3-0.5-34.6-0.9-51.9-1.4c-3.1-0.1-6.1-0.2-9.2-0.3
			c-2.8-3.1-5.7-6.1-8.5-9.2c19.1-17.4,61-21.7,95.9-3c-2.2,5.5-4.5,11.2-6.8,16.8c-3-0.3-6-0.6-9-0.9
			C1175,987.8,1173.1,987.3,1171.2,986.8z"/>
		<path class="st17" d="M1076.6,432.5c-18.7-41.9-43.5-79.3-78-110c2.8-1.8,5.5-3.7,8.3-5.5c46.5,42.3,78.6,93.2,92.8,154.8
			c0.5,2,1.5,3.8,2.3,5.7c-2.2-0.8-4.3-1.5-6.5-2.2C1089.2,460.9,1082.9,446.7,1076.6,432.5z"/>
		<path class="st15" d="M1094,856.9c2.2-3.5,4.4-6.9,8.2-12.8c0,6.2,0,9.9,0,13.7c-2.2,4-4.9,7.7-6.7,11.9c-10,24-25.7,33.8-51.5,33
			c-8.7-0.3-9.8-5.3-9.8-11.7c0.2-65,0.3-129.9,0.6-194.9c0.1-21.4,0.6-42.7,0.9-64.1c0.5-0.3,1-0.6,1.4-0.9c0,0,0.3,0.4,0.3,0.4
			c0.2,21.2,0.3,42.4,0.5,63.7c0.1,23.1,0.1,46.3,0.2,69.4c0,17.1-0.1,34.2-0.1,51.3c-0.1,18.9-0.5,37.7,0,56.6
			c0.1,3.6,3.2,9.5,5.9,10.2C1066.1,888.3,1084.1,878.6,1094,856.9z"/>
		<path class="st7" d="M615.4,317.1c15.9-4.8,31.8-9.6,47.6-14.5c3.6-1.1,7-2.6,10.5-3.9c-13,11.3-26,22.5-39,33.8
			c-7.9-0.7-11.4,3-11,10.7c-0.7,0.7-1.4,1.4-2,2.1c-2.2,2.5-4.3,5-6.5,7.4c0,0-0.5,0.3-0.5,0.3c-1.3,1.6-2.6,3.2-3.9,4.8l-0.2,0.2
			c-12.7-1.6-21.4,4.9-30.2,17c-1.1-5.6-1.7-8.8-2.4-12c0.8-2.5,1.5-5,2.3-7.5c5.9-7.7,11.8-15.4,17.7-23.1c0,0-0.1,0-0.1,0
			c0.9-0.9,1.8-1.8,2.7-2.6l-0.1,0.1c1.6-0.9,3.2-1.8,4.8-2.6C608.7,324,612,320.6,615.4,317.1z"/>
		<path class="st14" d="M952.6,1116.8c-8.9,42.2-28.1,78-63.7,103.8c-2.2,1.6-5.3,2-7.9,2.9c-6,0.5-12.1,0.8-18.1,1.5
			c-6.1,0.7-12.1,2-18.2,2.3c-0.8,0-1.8-4.5-2.6-6.9c1.7,0.1,3.4,0.1,5.1,0.2c1.2,1.4,2.3,2.7,3.5,4.1c1.5-1.4,2.9-2.9,4.4-4.4
			c5.2-2.6,11-4.5,15.6-8c11.2-8.7,21.9-18.1,32.8-27.2c1.3,1.7,2.7,3.4,4,5.1c3-2.5,6.8-4.5,9-7.6c3.3-4.8,6.3-10.1,7.9-15.6
			c2.3-7.9,3.3-16.2,4.8-24.3c0.7-1.7,1.4-3.4,2.1-5.1c2.9-2.8,7.9-5.4,8.2-8.5C940.2,1120.3,944.8,1117.2,952.6,1116.8z"/>
		<path class="st13" d="M631,239.3c-2.6,1.9-5,4.6-7.9,5.6c-7,2.4-14.2,4-21.3,6c3.3,3.6,5.8,6.4,8.3,9.2
			c-26.5,4.1-49,18.3-72.9,28.7c-15.4,6.7-30,15.3-44.9,23.1c7.5-8.3,19.3-13.4,20.2-26.7c16.1-8.2,31.7-17.8,48.5-24.1
			C583.8,252.4,607.6,246.4,631,239.3z"/>
		<path class="st3" d="M1019.7,423.5c-5.4-1.1-11-1.6-16.3-3.3c-32.4-10-65.5-13.4-99.3-11.4c-1.4,0.1-2.9-1.1-4.4-1.6
			c24.9-11.3,50-21.3,78.2-13.3C995.4,398.8,1008.4,409.8,1019.7,423.5z"/>
		<path class="st10" d="M492.2,681.8c2.3,4.7,4.9,9.3,7,14.2c1.4,3.3,2.7,6.7,3.3,10.2c1.9,10.8,3.4,21.6,5,32.4
			c-0.7,3.1-1.3,6.3-2,9.4c1.2,0.7,2.3,1.4,3.5,2.1c9.7-8.9,19.3-17.8,29-26.7c3.1,0.5,6.2,1,8.3,1.3c-8.8,11.9-17.5,23.4-26.1,35
			c-15.4,12.7,0.2,17.9,6.2,25.3c-6.3-0.9-12.6-1.7-18.9-2.6c-3.8-7.9-10-15.6-10.9-23.9C494.1,733,493.5,707.4,492.2,681.8z"/>
		<path class="st3" d="M1117.2,1022.1c-1.5,1.4-3.6,4.3-4.6,3.9c-31.1-10.2-62.2-20.8-93.2-31.3c1.7-2,3.4-5.7,5.2-5.7
			C1059.4,988.9,1093.3,991.8,1117.2,1022.1z"/>
		<path class="st3" d="M432.7,995.4c-30.1,10.4-60.1,20.8-90.2,31.1c-5.1-1-11.7-0.9-6.3-9.2c16.1-8.2,31.6-18.1,48.4-24.1
			c11.7-4.2,25.2-3.7,38-4.1C426,989.1,429.4,993.2,432.7,995.4z"/>
		<path class="st6" d="M336.3,1017.4c-5.4,8.2,1.2,8.2,6.3,9.2c0,12.7,5.9,17.7,18.9,16.4c4.8-0.5,10.1,3.1,15.2,4.8
			c-0.8,1.7-1.6,3.5-2.5,5.2c-1.1,0.8-2.1,1.7-3.2,2.5c-1.5,0.9-3,1.7-4.5,2.6c0,0-0.1,0.1-0.1,0.1c-6.3-0.8-12.8-0.9-18.9-2.6
			c-6.7-1.9-13-5.3-19.4-8c-12.1-7.2-24.2-6.4-36.3,0.1c0,0,0,0,0,0c-2.4-0.1-4.8-0.1-7.2-0.2c0,0-0.2-0.2-0.2-0.2
			c0.7-3.3,1.5-6.7,2.2-10c0,0-0.1,0.1-0.1,0.1c6.4-4.3,12.8-8.6,19.2-12.9c5.3,0.4,10.9,1.9,15.8,0.6c2.4-0.7,3.4-6.6,6.2-12.7
			c0.2,0,3.8-0.4,7.4-0.8C335.4,1013.4,335.9,1015.4,336.3,1017.4z"/>
		<path class="st11" d="M512.4,285.1c-0.9,13.3-12.7,18.4-20.2,26.7c-22.8,19.8-45.5,39.6-68.3,59.4c0.1-3.9,0.3-7.8,0.2-11.7
			c-0.1-2.1-0.8-4.2-1.2-6.2c14.4-23,38.5-34.7,59.1-50.6c2.6-2,5.2-4.2,7.8-6.3C497.3,292.7,504.8,288.9,512.4,285.1z"/>
		<path class="st18" d="M842.2,1220.3c0.9,2.4,1.9,6.9,2.6,6.9c6.1-0.3,12.1-1.6,18.2-2.3c6-0.7,12-1,18.1-1.5
			c-8.6,11.1-21.1,11.3-32.8,9.4c-28.7-4.5-54-17.2-78.6-36c8-4.8,14.4-8.6,20.8-12.5c17.1,11.2,34.2,22.4,51.4,33.6
			C841.9,1218.8,842.1,1219.5,842.2,1220.3z"/>
		<path class="st7" d="M804.3,669.6c1.5,1.2,3,2.5,4.8,4c-2.8,1.9-5.6,3.9-8.5,5.9c-7.6,1.3-10.5,5.8-10,13.5
			c0.5,7.6,0.8,15.4,0,22.9c-1.3,13,4.3,21.9,14.7,28.7c1.1,1.5,2.2,3.1,3.3,4.6c0.7,2.6,2.9,6.5,1.9,7.6c-8.2,8.9-0.4,12,5.2,16.1
			c2.1,3.2,4.1,6.4,6.2,9.6c-2-0.1-4.1-0.6-6-0.1c-3.4,0.8-6.7,2.3-10.1,3.4c-5.9-11.4-14.3-22.2-17.2-34.3
			c-4.3-17.7-5.4-36.2-6.6-54.5C780.8,681.5,788.1,673.6,804.3,669.6z"/>
		<path class="st10" d="M948.7,492.1c9.6-2.7,19.2-5.9,29-7.9c32.4-6.7,57.7,2.7,73.1,33.5c-7.9-2.5-15.8-4.9-23.7-7.4
			c-22.9-9.7-46.5-16.3-71.7-15.6C953,493.8,950.9,492.9,948.7,492.1z"/>
		<path class="st2" d="M948.7,492.1c2.2,0.9,4.4,1.7,6.6,2.6c3.9,2.5,7.6,5.9,11.9,7.3c6.3,2.1,13,3.3,19.7,4.1
			c13.4,1.7,26.8,2.8,40.2,4.1c7.9,2.5,15.8,4.9,23.7,7.4c2.8,2.8,5.6,5.5,8.4,8.3c-0.9,1.1-1.7,2.1-2.6,3.2
			c-42.2-8-84.5-16-126.7-24c0.1-1.5,0.1-3,0.2-4.5C936.2,497.7,942.5,494.9,948.7,492.1z"/>
		<path class="st10" d="M983.3,311.9c-7.6,0.1-15.2,0.2-22.8,0.3c-21.5-12.1-43-24.2-64.5-36.4c4.5-2.7,9-5.4,13.5-8.1
			C934.1,282.4,958.7,297.2,983.3,311.9z"/>
		<path class="st13" d="M662.3,713.4c-0.1,3.4-0.2,6.7-0.3,10.1c-11.5,2.5-16.6-3.3-16.9-15.7c-2.7,2.2-4.8,3-5,4.2
			c-2.1,10.9-9.5,12.6-18.9,11.6c-3.8-0.4-7.6-0.2-11.4-0.3c13.1-13.2,26.3-26.2,39.1-39.7c3-3.1,4.6-7.5,6.9-11.3
			c1.9,1.2,3.7,2.5,5.6,3.7c1.1,3.8,2.1,7.7,3.2,11.5c-4.2,7.6-8.4,15.3-12.2,22.1C656.3,711.1,659.3,712.2,662.3,713.4z"/>
		<path class="st18" d="M626.2,1227.7c-4.8-1.1-9.7-1.9-14.4-3.3c-2.3-0.7-4.2-2.5-6.2-3.8c0-0.9,0-1.7,0.1-2.6
			c7.9-2.2,16.7-2.9,23.6-7c12.5-7.4,23.8-16.8,35.7-25.4c6.1,3.4,12.3,6.9,20.2,11.3C666.4,1212,646.6,1220.2,626.2,1227.7z"/>
		<path class="st17" d="M538,723.2c-9.7,8.9-19.3,17.8-29,26.7c-1.2-0.7-2.3-1.4-3.5-2.1c0.7-3.1,1.3-6.3,2-9.4
			c22.1-20.5,44.3-41,66.4-61.7c3-2.8,5.3-6.5,7.9-9.7c0.9-0.8,1.9-1.7,2.8-2.5c12.1,0.9,24.3,1.8,36.4,2.7c-2.1,3-4.2,6-6.2,9
			c-1.7-7.7-16.4-13.1-22.4-7.3C573.9,686.8,556.1,705.1,538,723.2z"/>
		<path class="st19" d="M1162.5,782.3c-0.3-16.2-0.6-32.3-0.9-48.5c13.7,5,24.9,12.9,31.3,26.5c-5.9,6.6-11.3,13.8-18.1,19.4
			C1172.2,781.9,1168.5,791.1,1162.5,782.3z"/>
		<path class="st12" d="M577.9,363.2c0.6,3.2,1.3,6.4,2.4,12c8.8-12.1,17.5-18.6,30.2-17c-15.9,19.9-31.8,39.8-49.4,61.7
			C562.8,398.4,564.4,379.1,577.9,363.2z"/>
		<path class="st16" d="M456.3,476.5c5,16,0.6,31.1-4.8,46.1c-1.8-5.9-3-12.1-5.6-17.5c-2.4-4.9-6.4-8.9-9.7-13.3
			c-1.4-9.8-2.7-19.5-4.1-29.3c1.3-5,2.6-10,3.8-15c0.9-1.4,1.8-2.9,2.7-4.3c1.8,3.2,4.8,6.1,5.3,9.5c1.6,9.9,2.2,19.9,3.2,30.5
			C450.7,480.5,453.5,478.5,456.3,476.5z"/>
		<path class="st4" d="M1162.5,782.3c6,8.8,9.7-0.4,12.4-2.6c6.7-5.6,12.1-12.8,18.1-19.4c0.4,0.4,0.8,0.8,1.1,1.3
			c2.3,28.1-5.7,40.9-31.6,48.7C1162.5,800.7,1162.5,791.5,1162.5,782.3z"/>
		<path class="st7" d="M776.6,405.2c-16,6.5-32,13-47.9,19.6c-3,1.3-5.8,3.2-8.7,4.8c0,0-0.6,0.1-0.6,0.1c-2.7-1.5-5.4-2.9-8.1-4.4
			c7.6-8.6,15.2-17.2,22.8-25.8c3.9,1.5,9.8,5.4,11.4,4.1C756.7,394.5,766.5,400.6,776.6,405.2z"/>
		<path class="st0" d="M260.2,749.2c2-19.4,11.3-33.4,32.3-41.4c0,7.7,0,14.2,0,20.7c-0.2,2.3-0.4,4.7-0.7,7
			c-6.8,5.4-13.4,11-20.3,16.3c-3.3,2.5-7.1,4.3-10.7,6.4C260.6,755.3,260.4,752.2,260.2,749.2z"/>
		<path class="st2" d="M719.4,429.8c0,0,0.6-0.1,0.6-0.1c5.9,11.8,11.5,13.3,25.2,9.3c6.6-1.9,13.9-1.6,20.9-2.2
			c-17.2,4.7-34.2,10.3-51.7,13.7c-9.9,1.9-20.5,0.4-30.8,0.4c-0.3-1.4-0.5-2.7-0.8-4.1c7.5-5.6,15.1-11.2,22.6-16.8
			C710.1,436.9,714.8,436.8,719.4,429.8z"/>
		<path class="st20" d="M832.3,410.6c0.7-1.5,1.4-3,2.5-5.5c-6.9,0-13.4,0-23.8,0c4.7-2.7,6.1-3.5,8.8-5c-3.6-0.5-6.3-0.9-8.9-1.2
			c14.5-3.6,29.1-7.2,43.7-10.8c11.6,0.4,23.1,0.8,34.7,1.2c-10,4.9-19.7,10.4-30.1,14.4C850.5,407,841.2,408.4,832.3,410.6z"/>
		<path class="st4" d="M260.2,749.2c0.2,3,0.4,6,0.6,9c7.6,12.3,15,24.8,30.7,28.1c0.2,6.6,0.5,13.2,0.7,19.8
			c-2.3,0.9-5.4,3.1-6.9,2.4c-13.6-6.4-24.5-15.4-25.1-32C259.8,767.5,260.1,758.3,260.2,749.2z"/>
		<path class="st0" d="M1194,761.6c-0.4-0.4-0.7-0.9-1.1-1.3c-6.5-13.5-17.6-21.5-31.3-26.5c0-7.6,0-15.2,0-22.8
			C1183.8,711.9,1196.3,732.1,1194,761.6z"/>
		<path class="st18" d="M952.6,1116.8c-7.8,0.5-12.4,3.6-13.2,12.4c-0.3,3-5.3,5.7-8.2,8.5c4.2-12.8,8.9-25.5,12.4-38.6
			c1.8-6.5,1.3-13.7,1.9-20.6c1.6-8.1,3.2-16.2,4.8-24.4c9.6,7.8,8.9,18.8,8,29.2C957.3,1094.6,954.6,1105.6,952.6,1116.8z"/>
		<path class="st4" d="M692.4,1132.1c5,3.8,9.9,7.5,14.9,11.3c-33.3-7.3-66.3-14.6-91.5-39.4c0.9-1.3,1.8-2.7,2.6-4
			c16.5,8.8,32.8,18.2,49.7,26.1C675.6,1129.6,684.3,1130.2,692.4,1132.1z"/>
		<path class="st17" d="M808.5,749.2c-1.1-1.5-2.2-3.1-3.3-4.6c0.5-1.6,0.9-3.2,1.4-4.8c5-4.5,10-9,15-13.5c0,0,0,0,0,0
			c12.6-12.6,25.1-25.4,37.9-37.9c4.2-4.1,9.4-7.1,13.3-11.4c3.2-3.4,5.2-7.9,7.7-11.9c3.2-0.1,6.4-0.3,9.5-0.4
			c-3.5,5.1-6.2,10.9-10.5,15.2C856.1,703.1,832.3,726.1,808.5,749.2z"/>
		<path class="st13" d="M422.8,353.3c0.4,2.1,1.1,4.1,1.2,6.2c0.1,3.9-0.1,7.8-0.2,11.7c-9,14.4-18,28.8-27,43.2
			c-2.5-1.7-5.1-3.4-7.6-5.2c7.4-13.5,14.6-27.2,22.3-40.6C414.7,363.2,419,358.4,422.8,353.3z"/>
		<path class="st6" d="M883.3,430.2c5.3,3.5,10.7,7,16,10.6c-21.1,3.8-42.2,7.7-63.4,11.4c-0.3,0-0.8-1.3-1.2-2
			c7.5-5.9,15-11.9,22.4-17.8c0.4,0.3,0.7,0.6,1.1,0.9c0.6-0.2,1.2-0.3,1.9-0.5l0,0C867.9,432,875.7,431.1,883.3,430.2L883.3,430.2z
			"/>
		<path class="st12" d="M889.2,389.3c-11.6-0.4-23.1-0.8-34.7-1.2c16.4-4.8,32.5-10.5,49.2-14.1c9.4-2,19.5-0.3,29.3-0.3
			C918.3,378.9,903.8,384.1,889.2,389.3z"/>
		<path class="st5" d="M692.4,1132.1c-8.1-1.9-16.8-2.5-24.2-5.9c-16.9-8-33.2-17.3-49.7-26.1c1.2-1.9,2.4-3.8,3.6-5.7
			c0,0,0.7,0.2,0.7,0.2c3.6,1.6,7.2,3.2,10.8,4.8C653.1,1110.2,672.7,1121.2,692.4,1132.1z"/>
		<path class="st20" d="M615.4,317.1c-3.3,3.4-6.7,6.9-10,10.3c-1.6,0.9-3.2,1.8-4.9,2.6c0,0,0.1-0.1,0.1-0.1
			c-0.9,0.9-1.8,1.8-2.7,2.6c0,0,0.1,0,0.1,0c-8.6,5.3-17.1,10.5-25.7,15.8c-2.5,2.9-5,5.9-7.5,8.8c-0.1-1.4-0.3-2.7-0.4-4.1
			c-2.5-1.7-5-3.3-7.5-5l-0.3-0.3c0.1-1.9,0.2-3.9,0.3-5.8C573.8,327.7,592.7,318,615.4,317.1z"/>
		<path class="st2" d="M436.2,491.7c3.3,4.4,7.3,8.5,9.7,13.3c2.7,5.5,3.8,11.7,5.6,17.5c-1.6,13.4,0,25.9,9.9,36.2
			c-1.6,5-3.3,10-4.9,15c-1.6-0.2-3.2-0.4-4.8-0.5C446.6,546.1,441.4,518.9,436.2,491.7z"/>
		<path class="st8" d="M1076.6,432.5c6.3,14.2,12.6,28.5,18.9,42.7c-12-0.7-10.7,9.7-13.8,16.5c-3.5-13.7-7-27.4-10.6-41.1
			C1073,444.5,1074.8,438.5,1076.6,432.5z"/>
		<path class="st15" d="M1103.5,1068.1c14.2,1.5,14.8-13.4,23.1-19c3.2-2.2,6.4-4.2,9.6-6.4c2.1,4.2,4.1,8.3,7,14.1
			C1135,1072.6,1114.3,1079.6,1103.5,1068.1z"/>
		<path class="st21" d="M292.2,806.2c-0.2-6.6-0.5-13.2-0.7-19.8c0.1-17,0.2-33.9,0.2-50.9c0.2-2.3,0.4-4.6,0.7-7
			c7.6,8,11.9,15.7,3.5,26.8c-2.5,3.3,0.7,11.2,1.7,17c1.8,10.3,3.9,20.6,5.8,30.9c-1.4,0.4-2.7,0.8-4.1,1.2c-1.3-2-2.5-4-3.8-6.1
			C294.5,800.9,293.3,803.6,292.2,806.2z"/>
		<path class="st4" d="M978.3,615.3c1-1.8,2-3.6,3-5.4c1-3.1,3.7-7.1,2.6-9.1c-4.7-9.1-10.4-17.6-15.8-26.3c0.4-0.5,0.8-0.9,1.2-1.4
			c15.9,12.6,24.4,29.5,29.8,51.2C990.9,620.7,984.6,618,978.3,615.3z"/>
		<path class="st12" d="M328,1047.5c6.5,2.7,12.7,6.1,19.4,8c6.1,1.7,12.6,1.8,18.9,2.6c-4.5,3.3-9,6.5-13.5,9.8
			c-6.7,0.2-13.4,0.3-20.1,0.5c0,0,0,0,0,0C331.2,1061.4,329.6,1054.4,328,1047.5z"/>
		<path class="st15" d="M328,1047.5c1.6,7,3.2,13.9,4.8,20.9c-19.7-3.6-20.6-4.5-18.6-20.8c-7.5,0-15,0-22.5,0
			C303.8,1041.1,315.9,1040.3,328,1047.5z"/>
		<path class="st13" d="M436,447.4c-1.3,5-2.5,10-3.8,15c-3.5,8.4-6.9,16.8-10.4,25.2c-1.2-0.3-2.5-0.7-3.7-1
			c0.9-17.2,7.4-33,15.2-48.5C434.2,441.2,435.1,444.3,436,447.4z"/>
		<path class="st17" d="M436,447.4c-0.9-3.1-1.8-6.2-2.7-9.3c9.9-13.8,19.8-27.6,29.9-41.3c0.1-0.1,2.2,1.3,3.4,2
			c-2.8,4.5-5.5,8.9-8.3,13.4c-6.5,10.3-13,20.6-19.5,30.9C437.8,444.5,436.9,445.9,436,447.4z"/>
		<path class="st22" d="M530.8,371.1c-4.6,11.7-9.2,23.4-14.4,36.4c-0.4-5.3-0.6-9.3-0.9-13.3c2.6-8.7,5.2-17.4,7.8-26.2
			C525.8,369,528.3,370.1,530.8,371.1z"/>
		<path class="st2" d="M466.6,1130c-1.7-3.8-4.7-7.5-4.9-11.3c-0.5-13.4,0-26.8,0.1-40.1c1.4,3.1,3.9,6.2,4,9.4
			C466.5,1101.9,466.4,1115.9,466.6,1130z"/>
		<path class="st23" d="M622,1094.3c-1.2,1.9-2.4,3.8-3.6,5.7c-0.9,1.3-1.8,2.7-2.6,4c-6.7-6.2-13.5-12.5-20.2-18.7
			c0.7-1.1,1.4-2.2,2-3.2C605.8,1086.1,613.9,1090.2,622,1094.3z"/>
		<path class="st11" d="M584.6,664.6c-0.9,0.8-1.9,1.7-2.8,2.5c-18.9,0.8-37.8,1.7-56.7,2.1c-4.8,0.1-9.7-1.3-14.6-2
			C535.2,666.3,559.9,665.5,584.6,664.6z"/>
		<path class="st2" d="M572.3,348.3c8.6-5.3,17.1-10.5,25.7-15.8c-5.9,7.7-11.8,15.4-17.7,23.1C577.6,353.2,574.9,350.8,572.3,348.3
			z"/>
		<path class="st15" d="M305.7,1024.3c-6.4,4.3-12.8,8.6-19.2,12.9c1.1-2.6,2.3-5.2,2.8-6.4c-2.8-3.4-5.3-6.4-7.7-9.5
			c3.4-0.9,6.8-1.8,10.2-2.7c1.6-0.2,3.3-0.4,4.9-0.6c1.9,0.2,3.7,0.4,5.6,0.7C303.4,1020.6,304.5,1022.5,305.7,1024.3z"/>
		<path class="st9" d="M961.1,744.3c-0.3-1.9-0.6-3.7-0.8-5.6c1-19.1,2-38.2,3-57.3C967,702.5,969.4,723.6,961.1,744.3z"/>
		<path class="st2" d="M462,554.6c-1.3-12.8,0.9-23.9,14.6-29.2C471.8,535.1,466.9,544.8,462,554.6z"/>
		<path class="st4" d="M515.5,517.8c-2.3,9.5-0.1,21.3-12.7,25.7C507,535,511.3,526.4,515.5,517.8z"/>
		<path class="st6" d="M291.7,1018.7c-3.4,0.9-6.8,1.8-10.2,2.7c-2.6-6-5.2-12-7.8-18C279.7,1008.5,285.7,1013.6,291.7,1018.7z"/>
		<path class="st15" d="M332.8,1068.4c6.7-0.2,13.4-0.3,20.1-0.5C346.4,1076.2,339.8,1081.1,332.8,1068.4z"/>
		<path class="st7" d="M750,384.5c-1.1,9.2-4.3,16.4-15.6,14.8C739.6,394.4,744.8,389.4,750,384.5z"/>
		<path class="st5" d="M835.5,596.9c9.7-1,19.4-1.9,29.1-2.9C854.9,595,845.2,596,835.5,596.9z"/>
		<path class="st16" d="M719.4,429.8c-4.6,7-9.3,7.1-13.9,0c2-1.5,3.9-3,5.9-4.4C714,426.9,716.7,428.3,719.4,429.8z"/>
		<path class="st6" d="M379,1047.5c5.1-1.7,10.3-3.3,15.4-5c-4.1,2.4-8.3,4.9-12.4,7.3C381,1049.1,380,1048.3,379,1047.5z"/>
		<path class="st6" d="M394.6,1042.3c5.1-3.3,10.3-6.7,15.4-10C404.9,1035.6,399.8,1039,394.6,1042.3z"/>
		<path class="st12" d="M623.5,343.3c-0.4-7.8,3.2-11.4,11-10.7C630.9,336.1,627.2,339.7,623.5,343.3z"/>
		<path class="st2" d="M564.4,353.1c0.1,1.3,0.2,2.7,0.4,4.1c-1.8,2.9-3.6,5.9-5.5,8.8C561,361.7,562.7,357.4,564.4,353.1z"/>
		<path class="st13" d="M1037.2,631.1c-0.4,0.4-0.9,0.7-1.4,0.9c0.5-8.7,1-17.4,1.5-26.1C1037.3,614.3,1037.3,622.7,1037.2,631.1z"
			/>
		<path class="st4" d="M528.3,504c2.3,7.5-0.7,9.9-7.9,8.4C523,509.5,525.7,506.7,528.3,504z"/>
		<path class="st4" d="M502.8,543.6c-1.6,5.1-3.3,10.3-4.9,15.4C499.5,553.9,501.1,548.7,502.8,543.6z"/>
		<path class="st2" d="M998.2,1080.6c-3.2,1.1-6.3,2.1-9.5,3.2c-0.1-3.3-0.2-6.5-0.3-9.8C991.6,1076.2,994.9,1078.4,998.2,1080.6z"
			/>
		<path class="st15" d="M1102.6,859.2c0.6,6.6,1.3,13.1,1.9,19.7C1103.8,872.4,1103.2,865.8,1102.6,859.2z"/>
		<path class="st23" d="M633.5,1099.3c-3.6-1.6-7.2-3.2-10.8-4.8C626.3,1096.1,629.9,1097.7,633.5,1099.3z"/>
		<path class="st12" d="M379,1047.5c1,0.8,2,1.6,3,2.4c-2.6,1-5.3,2.1-7.9,3.1c0.8-1.7,1.6-3.5,2.5-5.2
			C377.4,1047.7,378.2,1047.6,379,1047.5z"/>
		<path class="st15" d="M286.5,1037.2c-0.7,3.3-1.5,6.7-2.2,10C285,1043.9,285.7,1040.5,286.5,1037.2z"/>
		<path class="st6" d="M410.1,1032.2c2.5-1.7,5-3.5,7.5-5.2C415.1,1028.8,412.6,1030.5,410.1,1032.2z"/>
		<path class="st2" d="M554.9,372.2c1.4-2.1,2.9-4.1,4.3-6.2C557.8,368,556.4,370.1,554.9,372.2z"/>
		<path class="st22" d="M528.7,356.4c-1.4,2.5-2.8,5-4.1,7.5C525.9,361.4,527.3,358.9,528.7,356.4z"/>
		<path class="st12" d="M615,352.9c2.2-2.5,4.3-5,6.5-7.4C619.3,347.9,617.2,350.4,615,352.9z"/>
		<path class="st15" d="M1104.4,880c2.2-0.7,4.4-1.4,6.6-2.1c-1.7,1.9-3.3,3.9-5,5.8C1105.4,882.4,1104.9,881.2,1104.4,880z"/>
		<path class="st15" d="M284.4,1047.4c2.4,0.1,4.8,0.1,7.2,0.2C289.3,1047.5,286.8,1047.4,284.4,1047.4z"/>
		<path class="st12" d="M366.4,1058c1.5-0.9,3-1.7,4.5-2.6C369.5,1056.3,367.9,1057.2,366.4,1058z"/>
		<path class="st6" d="M427.9,1016.3c0.9-1.5,1.8-3,2.8-4.5C429.8,1013.3,428.9,1014.8,427.9,1016.3z"/>
		<path class="st12" d="M610.6,358c1.3-1.6,2.6-3.2,3.9-4.8C613.2,354.8,611.9,356.4,610.6,358z"/>
		<path class="st2" d="M458,1078.4c1.3-0.9,2.6-1.8,3.9-2.7c0.2,0.9,0.1,1.7-0.4,2.5C460.3,1078.2,459.2,1078.3,458,1078.4z"/>
		<path class="st6" d="M417.8,1026.9c0.8-0.8,1.7-1.6,2.5-2.4C419.5,1025.4,418.7,1026.2,417.8,1026.9z"/>
		<path class="st6" d="M420.4,1024.5c0.8-0.8,1.7-1.6,2.5-2.5C422.1,1022.8,421.3,1023.6,420.4,1024.5z"/>
		<path class="st6" d="M423,1021.9c0.8-0.8,1.6-1.7,2.4-2.5C424.6,1020.2,423.8,1021.1,423,1021.9z"/>
		<path class="st6" d="M425.5,1019.2c0.7-0.8,1.3-1.6,2-2.4C426.8,1017.6,426.2,1018.4,425.5,1019.2z"/>
		<path class="st3" d="M765,373.2c-0.7,0.1-1.4,0.2-2.1,0.3C763.6,373.5,764.3,373.3,765,373.2z"/>
		<path class="st6" d="M860.8,430.3c-0.2,0.9-0.4,1.7-0.6,2.6l0,0c-0.6,0.1-1.3,0.3-1.9,0.5c-0.4-0.3-0.7-0.6-1.1-0.9
			C858.4,431.7,859.6,431,860.8,430.3z"/>
		<path class="st4" d="M520.5,512.3c-0.8,0.9-1.6,1.9-2.4,2.8C518.9,514.2,519.7,513.2,520.5,512.3z"/>
		<path class="st4" d="M518,515.2c-0.8,0.8-1.6,1.7-2.4,2.5C516.4,516.8,517.2,516,518,515.2z"/>
		<path class="st6" d="M341.2,875.4c0.6,0.6,1.2,1.2,1.9,1.8C342.5,876.6,341.8,876,341.2,875.4z"/>
		<path class="st15" d="M1111.1,877.8c1.2-1.2,2.3-2.4,3.5-3.6C1113.4,875.4,1112.2,876.6,1111.1,877.8z"/>
		<path class="st6" d="M338.9,872.4c0.5,0.7,1.1,1.4,1.6,2.1C339.9,873.8,339.4,873.1,338.9,872.4z"/>
		<path class="st5" d="M770.1,808.1c4.8,14.1,15.1,22.7,28.2,28.5c11.7,3.4,23.4,9.4,35.2,9.7c34,0.7,68.1-0.5,102.1-1.7
			c9.6-0.3,12.8,1.5,11.3,12.1c-6.2,44.5-28.1,80.7-56.8,114c-21.4,24.8-44.3,47.6-72.6,64.3c-34.9,20.6-73.1,25.5-112.7,22.2
			c-56.6-4.7-97.1-37-131.6-78.6c-17.1-20.6-33.9-41.8-47.7-64.7c-12.2-20.2-19.4-43.2-20.5-68.7c14.1,0.8,27.1,2.3,40.1,2
			c30.6-0.6,61.6,0.5,91.8-3.6c35.3-4.8,51.2-32.1,61.5-63.4c3.6-10.9,9.5-21,14.3-31.5c-3.1,33.6-6.2,67.2-9.4,100.8
			c-12.7-2.5-25.1,14-22.1,28.8c3.6,18.1,13.6,30.6,31.8,34.4c18.4,3.9,37,2.3,49.9-12.4c15.3-17.4,23.4-34.1,1.9-48.8
			c-5.8-1.4-11.6-2.7-17.4-4.1c-2.6-34.6-5.1-69.3-7.7-103.9c4.9,9.6,9.8,19.1,14.6,28.7c2,4.2,3.5,8.6,5.3,12.9
			c0,0,0.1,0.1,0.1,0.1c0.8,1.7,1.6,3.4,2.4,5.1c0,0,0,0.1,0,0.1C764.9,796.4,767.5,802.3,770.1,808.1z M765.1,929.5
			c-27.9,3.5-55.7,5.1-83.2-2.8c-8.2-2.2-16.4-4.4-24.6-6.6c-8.1,0-16,3.5-15,11.6c0.8,6,7.4,11.8,12.7,16.3
			c2.7,2.3,8.1,1.6,12.3,2.2c1.8,0.7,3.6,1.4,5.4,2.1c0,0-0.1-0.1-0.1-0.1c0.8,1.9,1.5,3.8,2.3,5.7c0.8,5.3-0.1,11.7,2.6,15.7
			c9.4,14.2,25.2,18.2,40.6,21.5c29.6,6.5,62.3-13,67.5-39.6c1.6-1.5,3.1-3.1,4.7-4.6c6.5-2.9,13.7-5,19.1-9.2
			c2.8-2.1,4.6-9.2,3.1-12.3c-1.9-4-7.1-8-11.5-8.8c-3.8-0.7-8.4,3.1-12.6,4.9C780.6,926.8,772.8,928.2,765.1,929.5z"/>
		<path class="st0" d="M703.4,849.6c3.1-33.6,6.2-67.2,9.4-100.8c3.8-5,6.9-13,11.6-14c4.3-0.9,10.2,5.7,15.4,8.9
			c2.6,34.6,5.1,69.3,7.7,103.9c-11.4,11.9-27,13.3-43.6,4C703.9,850.9,703.7,850.2,703.4,849.6z"/>
		<path class="st22" d="M945.5,1078.5c-0.5,6.9-0.1,14-1.9,20.6c-3.5,13-8.2,25.7-12.4,38.6c-0.7,1.7-1.4,3.4-2.1,5.1
			c-8.5,14.1-17.1,28.3-25.7,42.4c-10.9,9.1-21.6,18.5-32.8,27.2c-4.5,3.5-10.3,5.4-15.6,8c-2.6,0.1-5.3,0.2-7.9,0.3
			c-1.7-0.1-3.4-0.1-5.1-0.2c-0.1-0.8-0.2-1.5-0.4-2.3c6-3,12.4-5.4,17.9-9.2c37.9-26.2,58.1-64.9,74.6-106.3
			C937.5,1094.3,941.7,1086.5,945.5,1078.5z"/>
		<path class="st22" d="M605.6,1217.9c0,0.9,0,1.7-0.1,2.6c-27.3-4.5-47.4-21.7-60.5-43.5c-17.2-28.5-29.7-60-43.2-90.6
			c-2.2-5,0.7-12.3,1.2-18.5c5,10,10.6,19.8,14.9,30.1c14.6,35.3,30.3,69.8,60,95.6C587.2,1201.7,596.4,1209.8,605.6,1217.9z"/>
		<path class="st9" d="M1071.7,1163.1c4.7-11.8,9.4-23.6,14.6-37c4.8,2.9,9,5.4,13.2,8c-2.4,3.9-5.3,7.6-7.2,11.8
			c-1.8,4-2.6,8.4-3.9,12.7c11.4-5.1,20.4-9.2,29.4-13.2c1-0.2,1.7,0.2,2.2,1c-1,11.5,7,9.4,13.7,9.1c0.7-0.3,1.3-0.1,1.6,0.7
			c2.2,1.5,4.4,3,6.6,4.4c4.7,3,9.3,5.9,14,8.9c-6.9,14-19.9,17.3-33.3,16.7c-16.7-0.8-33.4-3.8-48.8-5.7
			C1072.8,1172.7,1072.2,1167.9,1071.7,1163.1z"/>
		<path class="st9" d="M1068.4,1168.5c0.8-1,1.6-2,2.5-3C1070,1166.5,1069.2,1167.5,1068.4,1168.5z"/>
		<path class="st9" d="M297.1,1170.5c23-15.1,45.9-30.3,68.4-45.1c7.3,15.7,13.8,29.9,20.6,44c0.3,0.5,3.4-0.3,5.1-0.5
			c-1,3.1-1.4,8.5-2.9,8.8c-17.3,3.3-34.7,6.1-52.2,8.3c-4.9,0.6-10-1.7-15.1-2C310.8,1183.3,302.9,1179,297.1,1170.5z"/>
		<path class="st1" d="M985.6,781.9c0,20.6,1.2,41.4-0.6,61.8c-0.8,9.2-7.9,17.8-11.8,26.9c-1.3,3.1-2.1,6.5-2.3,9.9
			c-0.5,7.8,1.9,16.1-8.2,20.8c-2.5,1.2-2.8,7.2-5.4,10.6c8.4-43.4,16.7-86.8,25.1-130.2C983.5,781.8,984.5,781.9,985.6,781.9z"/>
		<path class="st1" d="M770.1,808.1c-2.6-5.9-5.3-11.7-7.9-17.6C764.9,796.4,767.5,802.3,770.1,808.1z"/>
		<path class="st1" d="M762.2,790.5c-0.8-1.7-1.6-3.4-2.4-5.1C760.6,787.1,761.4,788.8,762.2,790.5z"/>
		<path class="st1" d="M968.1,574.5c5.3,8.7,11.1,17.2,15.8,26.3c1.1,2.1-1.6,6-2.6,9.1c-15.6-11.5-31.5-22.7-46.8-34.7
			c-5.8-4.5-10.2-10.8-15.2-16.2c8.8-1.5,17.5,9.2,26.8,0.7c0.1-0.1,6.8,4.9,8,8.3C956.9,575.7,961.8,576,968.1,574.5z"/>
		<path class="st1" d="M851.6,533.5c4.6-0.4,10.6,0.8,13.6-1.6c13.5-10.6,23.1-4.9,34.7,4.1c8.1,6.3,19.4,8.5,30.5,13
			c-4.4,4-7.8,7-11.1,10.1C896.7,550.5,874.1,542,851.6,533.5z"/>
		<path class="st8" d="M353.4,697.8c12.3,0.1,24.6-0.4,36.9,0.4c8.9,0.5,16.9,3.3,14.8,15.3c-0.3,1.7,0.7,3.7,1.4,6.8
			c3.3-6.7,5.9-12.1,8.5-17.4c0,33.7,0,67.4,0.1,101.2c0,7.6-1.8,12.2-11.1,11.1c-6.2-0.7-12.6,1-19,1.1c-19.2,0.2-18.9,0-24.2-18.3
			c-1.3-4.4-4.7-8.2-7.1-12.2C353.6,756.3,353.5,727.1,353.4,697.8z"/>
		<path class="st13" d="M1038,695.2c-0.2-21.2-0.3-42.4-0.5-63.7c16.8-0.3,33.5-0.4,47.3,11.6c13.6,11.9,18.8,27.6,19,44.7
			c0.5,42.8,0.1,85.7,0.1,128.6c-0.7-0.1-1.3-0.2-2-0.3c-0.9-14.6-1.7-29.1-2.6-43.7c0-15,0.1-29.9,0.1-44.9
			c0-15.1-9.2-25.5-24.1-27.1c-14-1.5-22,5.2-26.6,18.7c-0.5-8.2-0.9-16.4-1.4-25.4C1043.7,694.3,1040.8,694.7,1038,695.2z"/>
		<path class="st6" d="M1094,856.9c-9.9,21.7-27.9,31.3-50,25.7c-2.8-0.7-5.9-6.6-5.9-10.2c-0.5-18.8-0.1-37.7,0-56.6
			c20.4,0.1,40.8,0.2,61.3,0.2c1.5,2.6,3.1,5.2,4.6,7.8c0.3,1.6,0.5,3.1,0.8,4.7C1101.1,838.1,1097.6,847.5,1094,856.9z"/>
		<path class="st7" d="M1104,824c-1.5-2.6-3.1-5.2-4.6-7.8c0,0,1.3,0,1.3,0l1.3,0c0.7,0.1,1.3,0.2,2,0.3
			C1103.9,819,1103.9,821.5,1104,824z"/>
		<path class="st8" d="M1114.5,984.9c17.3,0.5,34.6,0.9,51.9,1.4c-1.3,2.5-2.5,5.1-4.3,8.6c4.5,0.9,8.5,1.6,15.7,3
			c-12.8,6.7-23.3,11.8-33.3,17.6c-3.2,1.8-5.4,5.4-10.2,10.2C1129.2,1013.1,1127.3,995.8,1114.5,984.9z"/>
		<path class="st8" d="M1171.2,986.8c1.9,0.5,3.8,1,5.8,1.5C1175,987.8,1173.1,987.3,1171.2,986.8z"/>
		<path class="st6" d="M903.7,440.4c3.2-21.6,12.2-2.5,18.5-2.7C916,438.6,909.8,439.5,903.7,440.4z"/>
		<path class="st6" d="M960.2,434.7c8.9-5.9,17.6-6.3,26.3,0.3C977.7,434.9,969,434.8,960.2,434.7z"/>
		<path class="st6" d="M929.8,437c3.6-0.5,7.1-0.9,10.7-1.4C936.9,436.1,933.3,436.5,929.8,437z"/>
		<path class="st7" d="M782.8,404.4c-0.9,0.1-1.8,0.2-2.7,0.3C781,404.6,781.9,404.5,782.8,404.4z"/>
		<path class="st8" d="M609.9,723.2c3.8,0.1,7.6-0.1,11.4,0.3c9.4,1.1,16.8-0.7,18.9-11.6c0.2-1.2,2.2-2,5-4.2
			c0.3,12.4,5.4,18.2,16.9,15.7c-3.8,13.2-5,28.2-12.2,39.1c-5.5,8.4-18.2,15.6-28.4,16.6c-24,2.3-48.5,0.6-72.7,0.5
			C569.1,760.9,589.5,742.1,609.9,723.2z"/>
		<path class="st11" d="M538,723.2c18.1-18.1,35.9-36.5,54.3-54.2c6-5.8,20.7-0.4,22.4,7.3c-25.3,22.9-50.6,45.9-76,68.7
			c-5.8,5.2-12.3,9.7-18.5,14.6c8.6-11.6,17.2-23.1,26.1-35C544.2,724.2,541.1,723.7,538,723.2z"/>
		<path class="st8" d="M548.6,779.8c-1.7,1-3.5,1.9-5.2,2.9C545.1,781.8,546.9,780.8,548.6,779.8z"/>
		<path class="st2" d="M1117.9,1145.4c-9,4-18,8.1-29.4,13.2c1.3-4.3,2.1-8.7,3.9-12.7c1.9-4.1,4.8-7.9,7.2-11.8
			C1105.6,1137.9,1111.7,1141.6,1117.9,1145.4z"/>
		<path class="st2" d="M1133.8,1155.5c-6.7,0.2-14.8,2.3-13.7-9.1C1124.6,1149.4,1129.2,1152.5,1133.8,1155.5z"/>
		<path class="st2" d="M1141.9,1160.6c-2.2-1.5-4.4-3-6.6-4.4C1137.6,1157.7,1139.8,1159.1,1141.9,1160.6z"/>
		<path class="st6" d="M883.4,430.3c1-1.3,1.9-2.5,2.9-3.8c0.4,0.5,0.8,1,1.2,1.5C886.1,428.7,884.7,429.5,883.4,430.3
			C883.3,430.2,883.4,430.3,883.4,430.3z"/>
		<path class="st20" d="M438.7,443.1c6.5-10.3,13-20.6,19.5-30.9c0.3,6.3,1,12.7,0.8,19c-0.6,15.1-1.7,30.2-2.6,45.3
			c-2.8,2-5.6,4-9.2,6.5c-1-10.6-1.6-20.6-3.2-30.5C443.4,449.2,440.5,446.2,438.7,443.1z"/>
		<path class="st10" d="M662.3,713.4c-3-1.2-6-2.3-9.8-3.9c3.8-6.8,8-14.4,12.2-22.1C667.5,696.5,671.8,705.6,662.3,713.4z"/>
		<path class="st13" d="M364.3,461.5c5-10.4,9.9-20.7,14.9-31.1c-1.9,11.3-3.8,22.5-5.8,34.3C368.8,463,366.5,462.3,364.3,461.5z"/>
		<path class="st13" d="M379.3,430.2c3.3-6.9,6.7-13.8,10-20.6C385.9,416.4,382.6,423.3,379.3,430.2z"/>
		<path class="st7" d="M739.5,358.6c7-3.4,13.9-6.9,20.9-10.3C753.4,351.7,746.4,355.1,739.5,358.6z"/>
		<path class="st20" d="M556.8,348.1c-0.4,0.3-0.8,0.7-1.2,1c0.3-0.4,0.6-0.9,0.9-1.3C556.5,347.8,556.8,348.1,556.8,348.1z"/>
		<path class="st6" d="M302.3,1018.8c-1.9-0.2-3.7-0.4-5.6-0.7C298.5,1018.3,300.4,1018.6,302.3,1018.8z"/>
		<path class="st13" d="M806.7,739.7c-0.5,1.6-0.9,3.2-1.4,4.8c-10.4-6.7-16-15.7-14.7-28.7c0.8-7.6,0.5-15.3,0-22.9
			c-0.5-7.7,2.4-12.2,10-13.5c4.2,2.5,8.3,5.2,12.7,7.3c4.8,2.2,9.9,3.7,14.9,5.5c1-1.1,2-2.2,3-3.2c0.5,6.8,1,13.7,1.4,20.5
			c-4.7-1.4-9.4-2.9-15.3-4.7c-2.6,7.6,11.6,12.9,4.3,21.3c0,0,0,0,0,0C807.8,723.3,803.8,727,806.7,739.7z"/>
		<path class="st8" d="M1038,695.2c2.8-0.4,5.7-0.9,9.3-1.4c0.5,9,1,17.2,1.4,25.4c4.6-13.4,12.6-20.2,26.6-18.7
			c15,1.6,24.1,12,24.1,27.1c0,15-0.1,29.9-0.1,44.9c-19.1,0.7-39.5,11.4-56.1-7.4c-0.8-0.9-3.3-0.3-5-0.4
			C1038.1,741.5,1038,718.3,1038,695.2z"/>
		<path class="st10" d="M1038.2,764.6c1.7,0.1,4.2-0.5,5,0.4c16.6,18.8,37,8.2,56.1,7.4c0.9,14.6,1.7,29.1,2.6,43.7c0,0-1.3,0-1.3,0
			s-1.3,0-1.3,0c-20.4-0.1-40.8-0.2-61.3-0.2C1038.1,798.8,1038.2,781.7,1038.2,764.6z"/>
		<path class="st2" d="M600.5,330.1c1.6-0.9,3.2-1.8,4.9-2.6C603.7,328.3,602.1,329.2,600.5,330.1z"/>
		<path class="st2" d="M597.9,332.6c0.9-0.9,1.8-1.8,2.7-2.6C599.7,330.9,598.8,331.8,597.9,332.6z"/>
		<path class="st18" d="M903.5,1185.1c8.6-14.1,17.1-28.3,25.7-42.4c-1.5,8.1-2.5,16.4-4.8,24.3c-1.6,5.5-4.6,10.8-7.9,15.6
			c-2.1,3.1-5.9,5.1-9,7.6C906.2,1188.5,904.8,1186.8,903.5,1185.1z"/>
		<path class="st18" d="M847.2,1220.5c2.6-0.1,5.3-0.2,7.9-0.3c-1.5,1.5-2.9,2.9-4.4,4.4C849.6,1223.2,848.4,1221.9,847.2,1220.5z"
			/>
		<path class="st9" d="M1027,510.2c-13.4-1.3-26.8-2.5-40.2-4.1c-6.6-0.8-13.3-2-19.7-4.1c-4.3-1.5-7.9-4.8-11.9-7.3
			C980.4,493.9,1004,500.6,1027,510.2z"/>
		<path class="st19" d="M291.8,735.5c-0.1,17-0.2,33.9-0.2,50.9c-15.7-3.4-23.2-15.8-30.7-28.1c3.6-2.1,7.4-4,10.7-6.4
			C278.4,746.6,285,741,291.8,735.5z"/>
		<path class="st11" d="M806.7,739.7c-2.9-12.8,1.1-16.4,15-13.5C816.7,730.7,811.7,735.2,806.7,739.7z"/>
		<path class="st10" d="M858.3,433.3c0.6-0.2,1.2-0.4,1.9-0.5C859.6,433,859,433.2,858.3,433.3z"/>
		<path class="st24" d="M788.4,925.5c4.2-1.8,8.8-5.6,12.6-4.9c4.4,0.8,9.6,4.8,11.5,8.8c1.4,3.1-0.3,10.2-3.1,12.3
			c-5.5,4.2-12.7,6.3-19.1,9.2c-15.3,1.3-30.6,3.8-46,3.8c-23.9,0-47.8-1.6-71.7-2.6c0,0,0.1,0.1,0.1,0.1c-1.8-0.7-3.6-1.4-5.4-2.1
			c-4.2-0.6-9.5,0.1-12.3-2.2c-5.3-4.5-11.9-10.4-12.7-16.3c-1-8.1,6.8-11.6,14.9-11.6c3.2,2,6.4,3.9,9.5,6.1
			C697.2,948.1,757.9,947.8,788.4,925.5z"/>
		<path class="st1" d="M785.5,955.6c-5.2,26.6-37.9,46-67.5,39.6c-15.4-3.4-31.2-7.3-40.6-21.5c-2.7-4-1.8-10.4-2.6-15.7
			c2.8,1.8,5.7,3.6,8.5,5.4c3.9,1.6,7.8,3,11.6,4.7c22.3,10.4,44.6,14.9,66.9,0.2C769.8,964,777.7,959.8,785.5,955.6z"/>
		<path class="st1" d="M703.4,849.6c0.3,0.6,0.5,1.3,0.5,2c-3.7,4.2-7.4,8.4-11.1,12.7c-8.9,7.4-5,14.7,0.2,21.9
			c-1.3,7.9,1.4,14.3,9.4,15.3c16.6,2.1,33.5,6.8,49.5-3.6c15.8-10.3,19.1-16,16.6-35c-0.6,4.2-0.8,5.8-1,7.3
			c-3.4-2.7-6.9-5.3-10.3-8c1.7-1.2,3.5-2.4,5.6-4c-2.5-0.8-4.2-1.3-6.8-2.1c3.8-1.9,6.4-3.1,8.9-4.4c21.5,14.6,13.4,31.3-1.9,48.8
			c-12.9,14.7-31.6,16.3-49.9,12.4c-18.2-3.9-28.2-16.4-31.8-34.4C678.3,863.5,690.7,847.1,703.4,849.6z"/>
		<path class="st3" d="M785.5,955.6c-7.9,4.2-15.7,8.5-23.6,12.7c-7,0.7-14,2.6-20.9,2c-19.3-1.8-38.5-4.5-57.7-6.9
			c-2.8-1.8-5.7-3.6-8.5-5.4c-0.8-1.9-1.5-3.8-2.3-5.7c23.9,0.9,47.8,2.6,71.7,2.6c15.3,0,30.6-2.4,46-3.8
			C788.7,952.5,787.1,954,785.5,955.6z"/>
		<path class="st4" d="M765,851.7c-2.6,1.3-5.2,2.6-8.9,4.4c2.6,0.8,4.3,1.3,6.8,2.1c-2.1,1.5-3.9,2.7-5.6,4
			c-16.9,12.8-34.1,19.3-53.3,3.8c-2.5-2-7.3-1.2-11-1.7c3.7-4.2,7.4-8.4,11.1-12.7c16.6,9.3,32.2,7.9,43.6-4
			C753.4,848.9,759.2,850.3,765,851.7z"/>
		<path class="st4" d="M788.4,925.5c-30.5,22.3-91.2,22.6-121.7,0.7c-3-2.2-6.3-4.1-9.5-6.1c8.2,2.2,16.4,4.4,24.7,6.6
			c-0.4,0.8-0.9,1.6-1.3,2.4c0.4,0.1,0.8,0.2,1.2,0.3c5.7,1.4,11.5,2.8,17.2,4.2c22.5,5.6,44.6,5.9,66.1-4
			C772.8,928.2,780.6,926.8,788.4,925.5z"/>
		<path class="st1" d="M765.1,929.5c-21.5,9.9-43.6,9.6-66.1,4c-5.7-1.4-11.5-2.8-17.2-4.2c-0.4-0.1-0.8-0.2-1.2-0.3
			c0.4-0.8,0.9-1.6,1.3-2.4C709.4,934.6,737.2,933,765.1,929.5z"/>
		<path class="st3" d="M667.2,950.2c1.8,0.7,3.6,1.4,5.4,2.1C670.8,951.6,669,950.9,667.2,950.2z"/>
		<path class="st21" d="M683.4,963.3c19.2,2.4,38.4,5.2,57.7,6.9c6.8,0.6,13.9-1.2,20.9-2c-22.4,14.6-44.6,10.1-66.9-0.2
			C691.2,966.3,687.2,964.9,683.4,963.3z"/>
		<path class="st24" d="M692.9,864.2c3.7,0.5,8.5-0.3,11,1.7c19.2,15.5,36.4,9.1,53.3-3.8c3.4,2.7,6.9,5.3,10.3,8
			c-4.3,6.3-7.4,14.3-13.2,18.7c-20.7,15.4-41.4,9.6-61.3-2.6C687.9,878.9,684,871.6,692.9,864.2z"/>
		<path class="st4" d="M693.1,886.2c20,12.2,40.7,18.1,61.3,2.6c5.8-4.3,8.8-12.3,13.2-18.7c0.2-1.5,0.4-3,1-7.3
			c2.5,18.9-0.8,24.7-16.6,35c-15.9,10.4-32.9,5.8-49.5,3.6C694.5,900.5,691.7,894,693.1,886.2z"/>
	</g>
	<path class="st24" d="M1186.6,1108.9c-0.6-0.7-1.2-1.5-1.7-2.3c-2.5-1.7-4.9-3.3-7.4-5c1.2-0.7,2.4-1.3,3.6-2
		c-0.2-0.3-0.3-0.6-0.5-0.9c3.6-1.7,7.1-3.4,10.7-5.1c5.2-5.3,10.3-10.6,15.5-15.9c0-0.7,0.2-1.3,0.7-1.7c1.6-2.8,3.2-5.6,4.7-8.3
		c2.9-11.1,5.7-22.2,8.6-33.3c0.8-24,1.6-48,2.4-71.9c0.8-21.1,1.1-21.8-19.4-28.1c-19.3-5.9-39.2-10-59.6-15.1
		c1.2-1.4,2.8-3.7,4.8-5.5c12.4-11.1,21.1-24.1,23.4-41.1c0.5-4,4.7-10.2,7.8-10.6c0.2,0,0.4-0.1,0.6-0.1c0.2-0.1,0.4-0.2,0.7-0.2
		c2.9-0.4,5.6-0.9,8.3-1.5c18.3-4.6,32.1-14.9,40.1-33.7c1.5-1.8,3-3.5,4.4-5.3c0.1,0.2,0.3,0.4,0.5,0.6c0.3-0.3,0.5-0.6,0.8-0.9
		c8.3-23.3,9.7-43.1,9.7-55.9c0-0.4,0-1,0-1.5c-0.4,0.6-0.8,1.2-1.2,1.8c-1.3-12.2-2.2-22.1-3.4-32c-3.6-30.3-16.2-53.3-48.5-61
		c-9.7-2.3-12-11.6-8.9-29.9c0.4-0.1,0.8-0.2,1.2-0.2c0,0,0,0,0-0.1c14.8-3.9,27.6-0.1,38.5,10.4c5.8,5.6,11.7,11.2,17,17.2
		c14.6,16.7,33.2,15.9,52,11.7c3.8-1.1,8.5-7.9,8.4-11.8c-0.2-6-3.8-12.3-7.5-17.4c-1.8-2.5-7.2-3.6-10.7-3.2
		c-17.5,1.7-29.1-8.3-38.7-20.3c-14.9-18.6-33.2-26.5-56.8-23.6c-8.4,1-17,0.2-25.9,0.2c-0.6-2.5-1.5-4.5-1.5-6.5
		c-1-40.7-1.9-81.3-2.8-122c-18.8-79.8-56.6-148.4-119-202.4c-41.7-36.1-89-62.4-140.8-81.6c-57.1-21.2-116.1-27.4-176.3-25.1
		c-30.3,1.2-61,1.1-90.7,6.3c-11.8,2.1-23.4,4.7-34.9,7.7c-0.5,0.1-1.1,0.3-1.6,0.4c-4.3,1.1-8.5,2.4-12.7,3.7
		c-8.2,2.5-16.4,5.2-24.4,8.2c-3.5,1.3-33.6,12.5-63.3,29.3c-66.1,37.4-113.1,93-132.9,118.5c-3.3,3.9-6.6,8.1-10,12.5
		c-4.3,5.6-8.2,11.1-11.7,16.4c-13.5,37.9-26,73.1-39.2,110.1c-0.5,13.1-0.8,26.5-1,40.2c-0.2,12.2-0.2,24.1-0.1,35.9l0,0
		c1.1,19.9,2.8,38,2.6,56c-0.1,5-6,9.9-9.1,14.9c-6.1,10-14,19.5-17.5,30.3c-2.8,8.8-6.8,12.1-14.8,14.6c-17,5.5-31.2,15-38.1,32.8
		c-1.4,2.7-2.8,5.3-4.3,8c-0.2,1.6-0.4,3.2-0.6,4.8c0,5,0,10,0,14.9c-3.5,19.1-6.2,49.5,5,81.4c5.5,15.7,12.1,27.6,23.2,35.6
		c7.6,5.5,17,9.1,28.3,10.3c3.3,0.4,8.9,2.8,9.2,4.8c2.9,22.4,16.4,38.7,32.7,56.1c-0.5,0.1-0.9,0.1-1.3,0.2c0,0,0.1,0.1,0.1,0.1
		c-6.3,0.9-10.7,2.1-15,1.9c-9.7-0.4-18.9,1-27.9,3.3c-11.8,3.2-23.2,8.2-34.4,13.4c-3,1.4-3.1,9.1-4.6,13.9c0,2.4,0,4.9,0,7.3
		c0,0,0,0,0,0c0-2.4,0-4.9,0-7.3c0.9,5.5,2.2,11,2.5,16.6c0.8,18.3,1.8,36.6,1.5,54.9c-0.4,21.1,5,40.1,16.4,57.6
		c5.1,3.8,10.1,7.6,15.2,11.4c9.2,2.6,6.9,9.9,2.8,13.1c-13.9,11-28.9,20.8-46.3,33v0.7h-0.6c-0.3,0.7-0.6,1.5-0.9,2.2v0.2h-0.1
		c-2.3,5.4-4.5,10.7-6.8,16.1v0c-5.1,12.1-10.2,24.3-15.3,36.4c-1.7,5.1-3.5,13-0.9,21.5c1.7,5.6,4.4,8.1,12.5,17.9
		c16,19.2,14.2,19.2,19.4,23.7c5,4.2,13.8,10.3,28,13.6c16.7,0,33.4,0,50.1-0.1c23-0.2,46-0.3,69-0.3c44.2,0,88.5,0,132.7,0
		c79.8-0.1,159.6-0.2,239.4-0.3c138.8-0.1,277.6-0.2,416.4-0.3c5.7-1.3,14.6-4,23.2-10.5c10.3-7.8,8.8-12.4,24.1-28.9
		c6.1-6.6,10.5-10.4,15.8-17.3v-55.4c-5.3-10.1-10.4-17.6-13.3-21.6c-3.6-5-8.6-11.4-15-18.5c-1.5-1-3-2-4.6-3.3
		C1193.4,1114,1189.4,1112,1186.6,1108.9z M1161.6,711c22.2,0.9,34.7,21,32.5,50.5c2.3,28.1-5.7,40.9-31.6,48.7c0-9.5,0-18.7,0-27.9
		c-0.3-16.2-0.6-32.3-0.9-48.5C1161.6,726.3,1161.6,718.7,1161.6,711z M299.4,804.4c-1.3-2-2.5-4-3.8-6.1c-1.1,2.7-2.3,5.3-3.4,7.9
		c-2.3,0.9-5.4,3.1-6.9,2.4c-13.6-6.4-24.5-15.4-25.1-32c-0.4-9.1,0-18.2,0-27.3c2-19.4,11.3-33.4,32.3-41.4c0,7.7,0,14.2,0,20.7
		c7.6,8,11.9,15.7,3.5,26.8c-2.5,3.3,0.7,11.2,1.7,17c1.8,10.3,3.9,20.6,5.8,30.9C302.1,803.6,300.8,804,299.4,804.4z M1192.7,972.4
		c-2.2,5.5-4.5,11.2-6.8,16.8c-3.5,9-5.8,18.9-11,26.8c-3.3,5-11,7-17.7,10.8c0,0,0,0,0,0c7.2,4.9,15.7,9.9,10.3,19.8
		c-1.1,2.1-11.5-0.7-17.6-1.5c-4.6-0.6-9.2-1.6-13.8-2.5c2.1,4.2,4.1,8.3,7,14.1c-8.1,15.7-28.9,22.7-39.7,11.3
		c-21.2-12.1-43.1-23.3-63.4-36.7c-12.3-8.1-26.1-17.6-20.6-36.7c1.7-2,3.4-5.7,5.2-5.7c34.8-0.1,68.7,2.7,92.6,33.1
		c1.3,1,2.6,2,4.9,3.8c1.5-17.6-9.1-28.9-16.9-41.4c-2.8-3.1-5.6-6.1-8.5-9.2C1116,957.9,1157.8,953.7,1192.7,972.4z M923.7,639.4
		c-40.6-0.6-81.2,1.9-121.8,4.8c-13.3,0.9-26.1,7.2-39.2,10.8c-25.4,6.9-50.4,5.5-75.9-1.3c-21.7-5.8-43.9-11.1-66.2-12.9
		c-57.2-4.5-114.6-6.2-170.2,12.9c-1.8,0.6-3.9,0.4-9.6,0.8c19.9-14.9,39.6-19,59.8-20.9c50.9-4.9,101.8-3.6,152.6,2.2
		c5.5,0.6,11.1,0.2,16.7,0.3c1.9-6.5,3.8-13.1,5.7-19.6c-13-15.7-32.3-15.2-49.9-18.8c-8.7-1.8-17.8-2-26.7-2.9
		c-44.1-1.7-86.2,7.4-127.1,22.8c-5,1.9-10,3.7-17.1,6.4c6.7-28.9,26.3-45.9,43-64.9c1.6-5.1,3.3-10.3,4.9-15.4l0-0.1
		c4.2-8.6,8.5-17.2,12.7-25.7l0.2-0.1c0.8-0.8,1.6-1.7,2.4-2.5l0.1-0.1c0.8-0.9,1.6-1.9,2.4-2.8l-0.1,0c2.6-2.8,5.3-5.6,7.9-8.4
		c31.6-29.2,69.7-35.8,110.7-32.2c16.8,2.6,33.6,5.3,50.4,7.7c11.6,1.7,23.3,2.6,34.9,4.5c26.2,4.4,52.4,8.6,78.3,14.1
		c20.8,4.4,41.1,11.5,62,15.6c41.6,8.3,74.9,30.6,104.7,59.3c15.9,12.6,24.4,29.5,29.8,51.2c-8.3-3.6-14.5-6.3-20.8-9
		c-23.9-6.2-47.6-12.9-71.7-18.3c-10.6-2.4-21.8-2.2-32.8-3.2c-3.1,0.1-6.2,0.2-9.2,0.3c-9.7,1-19.4,1.9-29.1,2.9
		c-11.2,1.9-22.9,2.3-33.4,6.1c-9,3.2-16.5,10.3-24.7,15.7c4.3,6.1,8.6,12.2,12.9,18.2c45.8-2,91.5-4.9,137.3-5.7
		c25.7-0.5,51.2,3.3,73.9,17.2c2,1.2,4,2.6,5,6.2c-5.4-1.5-10.8-3.4-16.3-4.4C968.1,646.3,945.9,639.7,923.7,639.4z M961.1,744.3
		c-3.8,11.6-5.6,24.4-11.8,34.6c-8,13.2-19.8,22.6-37.7,22c-25.7-1-51.4-0.1-77.1-0.1c-12.1,0-22.3-4.1-28.8-15
		c-5.9-11.4-14.3-22.2-17.2-34.3c-4.3-17.7-5.4-36.2-6.6-54.5c-1.1-15.4,6.2-23.3,22.4-27.4c19.2-0.9,38.3-1.7,57.5-2.7
		c6.3-0.3,12.5-1.3,18.8-1.9c3.2-0.1,6.4-0.3,9.6-0.4c17.2,0.6,34.4,1.3,51.5,1.9c5.2,2.1,10.3,4.3,15.5,6.4c2,2.8,4.1,5.6,6.1,8.5
		C967,702.5,969.4,723.6,961.1,744.3z M656.2,774.2c-8.7,17.6-23,27.2-43.7,26.7c-24.8-0.6-49.6,0.3-74.3-0.4
		c-13.1-0.3-25.1-4.2-30.6-18.1c-3.8-7.9-10-15.6-10.9-23.9c-2.6-25.5-3.1-51.1-4.4-76.7c6.1-4.8,12.2-9.7,18.3-14.5
		c24.7-0.9,49.4-1.8,74.1-2.7c12.1,0.9,24.3,1.8,36.4,2.7c11.6,1.6,23.2,3.3,34.9,4.9c1.9,1.2,3.7,2.5,5.6,3.7c3.2,5,8.9,9.8,9.3,15
		C673.5,719.9,669,748.1,656.2,774.2z M436.2,491.7c-1.4-9.8-2.7-19.5-4.1-29.3c-3.5,8.4-6.9,16.8-10.4,25.2c-1.2-0.3-2.5-0.7-3.7-1
		c0.9-17.2,7.4-33,15.2-48.5c9.9-13.8,19.8-27.6,29.9-41.3c0.1-0.1,2.2,1.3,3.4,2c1.9,2.3,4.9,4.4,5.5,7.1
		c6.5,29.1,13.4,58.1,18.5,87.4c1.2,6.8-3.3,14.9-6.2,22.1c-1.5,3.7-5,6.7-7.7,10c-4.9,9.7-9.7,19.5-14.6,29.2
		c-0.2,1.4-0.4,2.8-0.6,4.3c-1.6,5-3.3,10-4.9,15c-1.6-0.2-3.2-0.4-4.8-0.5C446.5,546.1,441.4,518.9,436.2,491.7z M932.9,373.7
		c-14.6,5.2-29.1,10.4-43.7,15.6c-10,4.9-19.7,10.4-30.1,14.4c-8.6,3.3-17.9,4.7-26.8,7c-8.4,4.3-16.5,9.5-25.3,12.8
		c-13.4,5.1-27.2,8.9-40.9,13.3c-17.2,4.7-34.2,10.2-51.7,13.7c-9.9,1.9-20.5,0.4-30.8,0.4c-0.3-1.4-0.5-2.7-0.8-4.1
		c7.5-5.6,15.1-11.2,22.6-16.8c2-1.5,3.9-3,5.9-4.4c7.6-8.6,15.2-17.2,22.8-25.8c0,0,0.3-0.3,0.3-0.3c5.2-4.9,10.4-9.9,15.6-14.8
		c4.3-3.6,8.6-7.3,12.9-10.9c0.6-0.1,1.2-0.2,1.8-0.3c15.1-9.4,29.2-21.5,45.6-27.5c52.2-19.1,103.9-17.9,153.2,10.8
		c3.6,1.6,7.3,3.1,10.9,4.7c0,1.2,0.1,2.3,0.1,3.5C960.6,367.7,946.7,370.7,932.9,373.7z M977.9,393.9c17.5,4.9,30.6,15.9,41.8,29.6
		c5.9,7.1,11.8,14.2,17.7,21.4c3.2,4.9,6.3,9.8,9.5,14.7c-0.9,1.3-1.8,2.7-2.7,4c-10.8-2.2-21.4-5.2-32.3-6.4
		c-28.6-3.1-56.5,0.7-84.5,7.4c-20.2,4.9-41.2,7.3-62,8.9c-19.1,1.5-38.4,0.3-57.6,0.3c-0.5-1.5-1.1-3-1.6-4.6
		c9.5-6.4,19.1-12.7,28.6-19.1c7.5-5.9,14.9-11.9,22.4-17.8c1.2-0.7,2.4-1.4,3.6-2.2c13-7.7,25.9-15.4,38.9-23.1
		C924.6,395.9,949.7,385.9,977.9,393.9z M827.7,316.8c-16.5,7.8-33,15.7-49.5,23.5c-7.9,6.8-15.4,14.1-23.7,20.4
		C711,394,663.8,420.3,611.8,438c-2.7,0.9-5.6,1.3-10.5,2.4c2.5-9.8,4.6-18.2,6.8-26.5c3.7-19.7,12.3-37,25.6-52
		c22.8-31.8,55.1-49,92.2-57c40.1-8.7,80.2-7.6,121.7,6.1C839.7,313.3,833.7,315.1,827.7,316.8z M673.5,298.7
		c-13,11.3-26,22.5-39,33.8c-3.7,3.6-7.3,7.2-11,10.7c-0.7,0.7-1.4,1.4-2,2.1c-2.2,2.5-4.3,5-6.5,7.4l-0.5,0.3
		c-1.3,1.6-2.6,3.2-3.9,4.8l-0.2,0.2c-15.9,19.9-31.8,39.8-49.4,61.7c1.7-21.5,3.2-40.8,16.8-56.7c0.8-2.5,1.5-5,2.3-7.5
		c-2.7-2.4-5.3-4.9-8-7.3c-2.5,2.9-5,5.9-7.5,8.8c-1.8,2.9-3.6,5.9-5.5,8.8c0,0,0,0,0,0c-1.4,2.1-2.9,4.1-4.3,6.2
		c-9,31.1-18,62.2-27.7,95.9c-2.6-5.9-5.2-9.7-6-13.8c-3.5-19.8-12-39.3-5.8-60c2.6-8.7,5.2-17.4,7.8-26.2c0.4-1.4,0.8-2.8,1.2-4.2
		c1.4-2.5,2.8-5,4.1-7.5c18.1-34.7,48.4-53.4,85-62.1c26.2-6.3,53.2-9.4,79.9-13.9c0.4,1,0.7,2,1.1,3.1
		C687.6,288.5,680.6,293.6,673.5,298.7z M929.8,505c0.1-1.5,0.1-3,0.2-4.5c6.2-2.8,12.4-5.6,18.6-8.5c9.6-2.7,19.2-5.9,29-7.9
		c32.4-6.7,57.7,2.7,73.1,33.5c2.8,2.8,5.6,5.5,8.4,8.3c-0.9,1.1-1.7,2.1-2.6,3.2C1014.3,521,972.1,513,929.8,505z M1131.9,738
		c0.2,35,0.2,70-2.2,104.9c-0.8,10.8-9.8,20.9-15.1,31.3c-1.2,1.2-2.3,2.4-3.5,3.6l-0.1,0c-1.7,1.9-3.3,3.9-5,5.8
		c-0.5-1.2-1.1-2.5-1.6-3.7l0.1-1.1c-0.6-6.6-1.3-13.1-1.9-19.7c-0.4-0.4-0.5-0.9-0.3-1.5c-2.2,4-4.9,7.7-6.7,11.9
		c-10,24-25.7,33.8-51.5,33c-8.7-0.3-9.8-5.3-9.8-11.7c0.2-65,0.3-129.9,0.6-194.9c0.1-21.4,0.6-42.7,0.9-64.1
		c0.5-8.7,1-17.4,1.6-26.1c48.1-8,87.2,34.1,91.1,67.1C1129.7,694.6,1131.7,716.3,1131.9,738z M351,480.1c0.1-1.5,1.5-2.9,2.3-4.4
		c5.4-31.3,20.1-58.7,35.7-85.7c20.3-35.1,45.5-66.1,77.6-91.3c34.5-29.5,74-50,116.6-64.7c114-39.2,225.8-33.6,334.5,19.1
		c33.2,16.1,62.7,38,89.2,63.8c46.5,42.3,78.6,93.2,92.8,154.8c0.5,2,1.5,3.8,2.3,5.7c12.7,33.5,6.2,68.1,7.6,102.5
		c-15.6-1-23.5-7.8-24.1-19.2c-1.2-23-2.5-46-3.8-69.1c-3.5-13.7-7-27.4-10.6-41.1c-23-56.2-59.1-102-109.5-136.2
		c-0.6-0.4-0.8-1.5-1.2-2.2c-21.5-12.1-43-24.2-64.5-36.4c-8.9-2.5-18-4.5-26.6-7.7c-35.8-13.4-72.9-21.1-111-23
		c-48-2.5-95.6,0.5-142,14.5c-2,0.6-4.2,0.3-6.3,0.5c-26.5,4.1-48.9,18.3-72.9,28.7c-15.4,6.7-30,15.3-44.9,23.1
		c-22.8,19.8-45.5,39.6-68.3,59.4c-9,14.4-18,28.8-27,43.2c-5.9,15.5-14.5,30.5-17.1,46.5c-4.8,30-6.8,60.6-8.5,91
		c-1.1,19.5-2.7,23.2-23.6,29.9c-0.7-3.3-2.1-6.5-2-9.6C347.3,541.5,349.1,510.8,351,480.1z M324.4,687.9c0-2.1,0.7-4.2,1.1-6.3
		c-2.4-41.7,44-84.2,91.8-75.8c0,8.1,0,16.5,0,24.8c0.1,3.2,0.2,6.5,0.3,9.7c0.3,33.4,0.7,66.8,0.8,100.1c0.1,48,0.2,95.9-0.1,143.9
		c-0.1,17.1-0.9,17.3-17.7,14.6c-25.5-4.2-26.8-5.3-46.1-40.3c-1,9.4-1.9,17.5-3,28.2c-3.8-4.5-5.8-7-7.9-9.5l-0.5-0.4
		c-0.6-0.6-1.2-1.2-1.9-1.8c-0.6-0.1-0.8-0.4-0.8-1c-0.5-0.7-1.1-1.4-1.6-2.1c-11.3-14.7-17-30.9-16.5-49.8
		C323.6,777.7,323.7,732.8,324.4,687.9z M269.9,991.5c-11-17.9-10.3-20.3,9.1-26.4c27.5-8.6,53.8-5.9,80.1,9.5
		c-4.7,4.3-8.8,8-12.8,11.6c-3.8,8.4-7.6,16.9-11.3,25.3c0.4,2,0.9,4,1.3,6c16.1-8.2,31.6-18.1,48.4-24.1c11.7-4.2,25.2-3.7,38-4.1
		c3.3-0.1,6.7,4.1,10,6.3c-0.7,5.4-1.3,10.9-2,16.3c-0.9,1.5-1.8,3-2.8,4.5l-0.5,0.5c-0.7,0.8-1.3,1.6-2,2.4l-0.1,0.2
		c-0.8,0.8-1.6,1.7-2.4,2.5l-0.1,0.1c-0.8,0.8-1.7,1.6-2.5,2.5l-0.1,0.1c-0.8,0.8-1.7,1.6-2.5,2.4c0,0-0.2,0.1-0.2,0.1
		c-2.5,1.7-5,3.5-7.5,5.2l-0.1,0.1c-5.1,3.3-10.3,6.7-15.4,10l-0.2,0.2c-4.1,2.4-8.3,4.9-12.4,7.3c-2.6,1-5.3,2.1-7.9,3.1
		c-1.1,0.8-2.1,1.7-3.2,2.5c-1.5,0.9-3,1.7-4.5,2.6l-0.1,0.1c-4.5,3.3-9,6.5-13.5,9.8c-6.5,8.3-13.1,13.3-20.1,0.5l0,0
		c-19.7-3.6-20.6-4.5-18.6-20.8c-7.5,0-15,0-22.5,0l0,0c-2.4-0.1-4.8-0.1-7.2-0.2l-0.2-0.2c0.7-3.3,1.5-6.7,2.2-10l-0.1,0.1
		c1.1-2.6,2.3-5.2,2.8-6.4c-2.8-3.4-5.3-6.4-7.7-9.5c-2.6-6-5.2-12-7.8-18C272.4,999.4,271.2,995.4,269.9,991.5z M471.2,1185
		c-20.2,11.7-39.7,26.7-61.6,33c-45.7,13.2-91.9,14.8-133-15.9c-3.5-2.6-3.9-9.1-5.8-13.8c-6,4.5-12,9.1-20.1,15.2
		c-5.2-1.7-2.9-5.9,2.3-10.2c27.1-22.1,53.2-45.6,81.7-65.8c40.8-29,86.1-49.9,135.4-65.7c-2.7,4.6-5.4,9.2-8.1,13.8
		c0.2,0.9,0.1,1.7-0.4,2.5c0,0,0.4,0.4,0.4,0.4c1.4,3.1,3.9,6.2,4,9.3c0.6,14,0.5,28,0.7,42.1c0.3,3.4,0.6,6.8,0.9,10.2
		c3.1,11.5,6.7,22.8,8.9,34.5C477,1177.8,474.1,1183.4,471.2,1185z M626.2,1227.7c-27.5,12.7-51.4,3.9-71.7-14.6
		c-40.1-36.6-57.4-83.8-58.8-137.2c-0.2-6.1,4.5-12.2,7-18.4c8.9-10.1,17.7-20.3,28-32.1c5.3,14.7,8.7,26.9,13.9,38.1
		c21.6,46.4,56.4,80.9,98.9,108.2c7.2,4.6,14.3,9.2,21.5,13.8c6.1,3.4,12.3,6.9,20.2,11.3C666.4,1212,646.6,1220.2,626.2,1227.7z
		 M615.8,1104c-6.7-6.2-13.5-12.5-20.2-18.7c0.7-1.1,1.4-2.2,2-3.2c8.1,4.1,16.3,8.2,24.4,12.2l0.7,0.2c3.6,1.6,7.2,3.2,10.8,4.8
		c19.6,10.9,39.2,21.9,58.9,32.8c5,3.8,9.9,7.5,14.9,11.3C674,1136.1,641,1128.8,615.8,1104z M738.9,1073.9
		c-32.7,0.6-64.9-0.6-94.8-15.7c-3-1.5-5.8-3.5-8.7-5.2c-16.2-11-32.9-21.5-48.6-33.3c-9.2-6.8-16.9-15.6-25.3-23.4
		c-19.8-22.7-39.5-45.6-59.4-68.2c-36.5-41.3-41.6-92.1-43.2-143.8c-0.5-18.3-0.1-36.7-0.1-54.9c3.8,12,7,25,11.9,37.2
		c4.7,11.8,10.1,23.7,17.2,34.1c12,17.3,28.7,28.1,50.7,27.8c30.8-0.4,61.6-1,92.4-2.3c17.6-0.7,28.4-14.1,41-24
		c9.8-22.9,19.7-45.8,29.4-68.7c9-21.2,27.2-25.6,42.9-10.4c6.8,16.4,14.7,32.4,20.2,49.2c9.4,28.5,27.4,47.4,56.5,54.9
		c5.5,1.4,11.6,1,17.4,1.1c24,0.2,48,0.4,72,0.3c30.7-0.2,51.7-16,64.4-42.9c6.7-14.3,11-29.6,16.4-44.5c1.2-3.5,2.3-7,3.4-10.5
		c1.1,0.2,2.2,0.3,3.3,0.5c-2.5,38.3-3.7,76.7-7.7,114.9c-3.6,34.4-21.3,63.2-42.6,89.9c-31.9,40-66.3,77.4-109,106.2
		C808.8,1062.3,775.6,1073.2,738.9,1073.9z M958.3,1083.4c-1,11.2-3.7,22.3-5.7,33.4c-8.9,42.2-28.1,78-63.7,103.8
		c-2.2,1.6-5.3,2-7.9,2.9c-8.6,11.1-21.1,11.3-32.8,9.4c-28.7-4.5-54-17.2-78.6-36c8-4.8,14.4-8.6,20.8-12.5
		c37.1-20.4,69.7-46.1,94.9-80.6c16.8-23.1,28.1-48.7,35.8-79.6c10.6,10.9,19.9,20.5,29.2,30C959.9,1062,959.2,1073,958.3,1083.4z
		 M1186.9,1191.3c-17.7,23.2-42.4,32-70.2,33.7c-17.5,1-35.6,2.8-52.5-0.6c-18.3-3.7-36.5-11.2-53.1-20c-37.6-20-37-20.8-28.1-62.3
		c2.4-11.2,2.1-22.9,3.3-34.3c0.7-6.3,1.9-12.6,2.8-18.8c-0.2-1.7-0.4-3.4-0.6-5.1c-0.1-3.3-0.2-6.5-0.3-9.8
		c-2.1-4.3-4.3-8.6-6.4-12.9c0.7-0.9,1.4-1.8,2.2-2.7c22.5,10,45.5,19,67.4,30.1c48.5,24.6,95.4,51.9,134.9,90.1
		C1195.2,1187.3,1195.3,1188.5,1186.9,1191.3z"/>
</g>
</svg>
